<svg xmlns="http://www.w3.org/2000/svg" viewBox="0 0 700 700">
  <defs>
    <style>
      .a {
        fill: #f2f2f2;
      }
    </style>
  </defs>
  <title>A1</title>
  <g>
    <g>
      <path d="M699,1V699H1V1H699m1-1H0V700H700V0Z"/>
      <path class="a" d="M565.1459,321.6956c90.3928,46.4665,101.4019,151.0275,27.9855,235.4972-63.5461,73.1133-220.0665,152.7178-276.2727,11.7245-24.3732-61.14,11.7075-86.5012,42.9394-113.0826,46.6557-39.7084-5.8766-53.9537,15.0039-102.2295C407.5058,277.9938,497.3173,288.6516,565.1459,321.6956Z"/>
    </g>
    <path class="a" d="M309.0663,358.277C310,380,295,399,276,410c-25,14-57,17-81.2685,2.2991a64.7917,64.7917,0,0,1-10-7.2425,63.8533,63.8533,0,0,1-21.7359-48.0784c1.6707-28.3152,12.3658-62.8955,37.2964-75.9505a46.45,46.45,0,0,1,16.7109-5.0227C257,274,290,306,305.9671,339.5574A59.3383,59.3383,0,0,1,309.0663,358.277Z"/>
    <path class="a" d="M404.1466,211.7941c2.0569,19.4952-8.76,23.2631-20.78,27.52-7.9527,2.8166-15.01,7.0214-23.7991,6.1405a40.1973,40.1973,0,0,1-21.0444-8.517c-12.5233-10.3905-8.6476-27.7344-1.7012-40.39,7.61-13.8648,20.2681-24.95,36.9431-22.939C394.295,176.084,402.09,192.2988,404.1466,211.7941Z"/>
  </g>
</svg>
