<svg xmlns="http://www.w3.org/2000/svg" viewBox="0 0 700 700">
  <defs>
    <style>
      .a {
        fill: #f2f2f2;
      }
    </style>
  </defs>
  <title>A2</title>
  <g>
    <path d="M699,1V699H1V1H699m1-1H0V700H700V0Z"/>
    <circle class="a" cx="201" cy="282" r="79"/>
    <circle class="a" cx="376" cy="173" r="44"/>
    <circle class="a" cx="564" cy="634" r="44"/>
    <path class="a" d="M604.7988,393.0691a233.9382,233.9382,0,0,0-7.3235-29.6294,138.9576,138.9576,0,0,0-6.1065-18.8247C576,304,545,270,505,254a128.2867,128.2867,0,0,0-54.2324-8.62,153.34,153.34,0,0,0-27.1773,3.9155C346,277,286,352,260.24,428.6425a139.3683,139.3683,0,0,0-2.3241,26.8346c.4965,52.9694,30.2105,99.4048,86.6205,122.5717,35.1964,13.5782,75.3928,21.1128,110.0595,15.4881a144.0762,144.0762,0,0,0,25.1139-6.4464c35.2417-13.4087,73.7541-26.7546,98.3442-56.2938A102.3678,102.3678,0,0,0,591,511C608.2,475,611.96,433.24,604.7988,393.0691ZM378,570a44,44,0,1,1,44-44A44,44,0,0,1,378,570Z"/>
    <circle class="a" cx="280" cy="601" r="22"/>
    <circle class="a" cx="631" cy="304" r="22"/>
  </g>
</svg>
