<svg xmlns="http://www.w3.org/2000/svg" viewBox="0 0 700 700">
  <defs>
    <style>
      .a {
        fill: #f2f2f2;
      }
    </style>
  </defs>
  <title>A3</title>
  <g>
    <path d="M699,1V699H1V1H699m1-1H0V700H700V0Z"/>
    <path class="a" d="M410.2494,232.0146,208.7545,419.8254c-28.6162,26.6728-17.6272,74.3213,19.78,85.7672l263.3964,80.5943c37.4074,11.4459,73.1777-21.8951,64.3864-60.0138L494.4161,257.768C485.6248,219.6492,438.8656,205.3418,410.2494,232.0146ZM476.0338,399.05l2.0635,8.9472c13.5374,58.6984-41.5445,110.04-99.1475,92.4142l-8.78-2.6866c-57.603-17.6255-74.5248-90.9984-30.4593-132.0713l6.7168-6.2607C390.4926,318.3194,462.4963,340.3511,476.0338,399.05Z"/>
    <circle class="a" cx="252.5" cy="275" r="49.5"/>
    <circle class="a" cx="568.5" cy="253" r="34.2013"/>
    <circle class="a" cx="425.5" cy="616" r="24.6937"/>
    <circle class="a" cx="419.5" cy="427" r="45.5"/>
  </g>
</svg>
