<svg xmlns="http://www.w3.org/2000/svg" viewBox="0 0 700 700">
  <defs>
    <style>
      .a {
        fill: #f2f2f2;
      }
    </style>
  </defs>
  <title>A4</title>
  <g>
    <path d="M699,1V699H1V1H699m1-1H0V700H700V0Z"/>
    <path class="a" d="M587.4032,373.3748,341.71,248.8444c-34.8933-17.6857-75.8469,9.0337-73.7166,48.095l15,275.042c2.13,39.0613,45.7469,61.1685,78.51,39.7929L592.1964,461.2627C624.9593,439.8872,622.2964,391.0605,587.4032,373.3748ZM453.2215,492.6373l-7.69,5.0172C395.08,530.57,327.916,496.528,324.6356,436.3782l-.5-9.1685c-3.28-60.15,59.7834-101.2946,113.5148-74.0607l8.19,4.1512C499.572,384.5342,503.6725,459.7214,453.2215,492.6373Z"/>
    <circle class="a" cx="527.5807" cy="252.6448" r="49.5"/>
    <circle class="a" cx="528.1749" cy="588.1778" r="34.2013"/>
    <circle class="a" cx="232.1346" cy="519.8728" r="24.6937"/>
    <circle class="a" cx="228.1346" cy="403.8728" r="12.3969"/>
    <circle class="a" cx="446.1346" cy="600.8728" r="12.3969"/>
    <circle class="a" cx="575.1346" cy="334.8728" r="12.3969"/>
    <circle class="a" cx="392.5575" cy="403.7017" r="45.5"/>
  </g>
</svg>
