<svg xmlns="http://www.w3.org/2000/svg" viewBox="0 0 3538.5002 2752.7701">
  <defs>
    <style>
      .a {
        fill: #f2f2f2;
      }
    </style>
  </defs>
  <title>A4</title>
  <g>
    <g>
      <path d="M3537.5,1V699h-698V1h698m1-1h-700V700h700V0Z"/>
      <g>
        <path class="a" d="M3258.3826,243.5382a175.6074,175.6074,0,0,0-178.8691,222.44,4.8144,4.8144,0,0,0,9.4383-1.025q.0318-.5353.0692-1.0716a100.7309,100.7309,0,0,1,201.0629,12.58c-2.9807,54.2019-48.9679,96.6323-103.2319,95.1678q-1.95-.0527-3.8787-.1779a4.8153,4.8153,0,0,0-2.1591,9.2451,175.1294,175.1294,0,0,0,57.9066,13.2905c96.4525,5.43,179.6426-68.88,185.0863-165.3312A175.5,175.5,0,0,0,3258.3826,243.5382Z"/>
        <circle class="a" cx="3196.1147" cy="488.4443" r="44"/>
        <ellipse class="a" cx="3118.0888" cy="235.9218" rx="24.7733" ry="24.5716" transform="translate(2708.4829 3335.9799) rotate(-86.8001)"/>
        <ellipse class="a" cx="3194.4668" cy="625.4076" rx="17.1582" ry="17.3434" transform="translate(2391.7189 3779.9834) rotate(-86.8001)"/>
        <ellipse class="a" cx="3359.4934" cy="199.5875" rx="44.5091" ry="45.1704" transform="translate(349.4969 1704.8955) rotate(-29.9697)"/>
        <circle class="a" cx="3416.6395" cy="556.8607" r="20.2879"/>
        <circle class="a" cx="3466.5942" cy="308.2615" r="20.2879"/>
        <circle class="a" cx="3458.9721" cy="372.9369" r="10.3101"/>
        <circle class="a" cx="3273.0399" cy="205.2968" r="10.3101"/>
        <circle class="a" cx="2991.3732" cy="334.776" r="10.3101"/>
        <circle class="a" cx="3115.6686" cy="530.0186" r="10.3101"/>
        <circle class="a" cx="3364.373" cy="596.0042" r="10.3101"/>
      </g>
    </g>
    <path class="a" d="M3.5535,2751.795a7.1537,7.1537,0,0,1,1.6854-13.073l108.6889-30.2288a7.1539,7.1539,0,1,1,3.8335,13.7847L9.0724,2752.5066A7.1318,7.1318,0,0,1,3.5535,2751.795Z"/>
  </g>
</svg>
