<svg xmlns="http://www.w3.org/2000/svg" viewBox="0 0 700 700">
  <defs>
    <style>
      .a {
        fill: #f2f2f2;
      }
    </style>
  </defs>
  <title>A5</title>
  <g>
    <path d="M699,1V699H1V1H699m1-1H0V700H700V0Z"/>
    <g>
      <path class="a" d="M419.8824,243.5382a175.6076,175.6076,0,0,0-178.8691,222.44,4.8144,4.8144,0,0,0,9.4383-1.025q.0318-.5353.0693-1.0716a100.7309,100.7309,0,0,1,201.0628,12.58c-2.9806,54.2019-48.9678,96.6323-103.2318,95.1678q-1.95-.0527-3.8787-.1779a4.8153,4.8153,0,0,0-2.1592,9.2451,175.1306,175.1306,0,0,0,57.9067,13.2905c96.4525,5.43,179.6426-68.88,185.0862-165.3312A175.5,175.5,0,0,0,419.8824,243.5382Z"/>
      <circle class="a" cx="357.6145" cy="488.4443" r="44"/>
      <ellipse class="a" cx="279.5887" cy="235.9218" rx="24.7733" ry="24.5716" transform="translate(28.428 501.9054) rotate(-86.8001)"/>
      <ellipse class="a" cx="355.9666" cy="625.4076" rx="17.1582" ry="17.3434" transform="translate(-288.3359 945.9089) rotate(-86.8001)"/>
      <ellipse class="a" cx="520.9933" cy="199.5875" rx="44.5091" ry="45.1704" transform="translate(-30.0401 286.945) rotate(-29.9697)"/>
      <circle class="a" cx="578.1393" cy="556.8607" r="20.2879"/>
      <circle class="a" cx="628.0941" cy="308.2615" r="20.2879"/>
      <circle class="a" cx="620.472" cy="372.9369" r="10.3101"/>
      <circle class="a" cx="434.5398" cy="205.2968" r="10.3101"/>
      <circle class="a" cx="152.8731" cy="334.776" r="10.3101"/>
      <circle class="a" cx="277.1684" cy="530.0186" r="10.3101"/>
      <circle class="a" cx="525.8729" cy="596.0042" r="10.3101"/>
    </g>
  </g>
</svg>
