<svg xmlns="http://www.w3.org/2000/svg" viewBox="0 0 700 700">
  <defs>
    <style>
      .a {
        fill: #f2f2f2;
      }
    </style>
  </defs>
  <title>A5</title>
  <g>
    <path d="M699,1V699H1V1H699m1-1H0V700H700V0Z"/>
    <path class="a" d="M340.4149,583.4216,595.4922,468.6484c34.8114-15.6635,39.6122-63.1377,8.6415-85.4534L377.1986,219.6781c-30.9707-22.3157-74.4849-2.7363-78.3256,35.243l-28.1422,278.29C266.89,571.19,305.6035,599.0851,340.4149,583.4216Zm17.7715-141.8233,8.03-79.41a29.4981,29.4981,0,0,1,46.593-20.9647l64.7561,46.66a29.4982,29.4982,0,0,1-5.14,50.8331l-72.7865,32.7506A29.4981,29.4981,0,0,1,358.1864,441.5983Z"/>
    <circle class="a" cx="217" cy="397.5" r="35"/>
    <circle class="a" cx="523" cy="593.5" r="35"/>
    <circle class="a" cx="490" cy="200.5" r="35"/>
    <circle class="a" cx="559" cy="306.5" r="19.6773"/>
    <circle class="a" cx="252" cy="484.5" r="10.8241"/>
    <circle class="a" cx="226" cy="295.5" r="10.8241"/>
    <circle class="a" cx="616" cy="506.5" r="10.8241"/>
    <circle class="a" cx="616" cy="200.5" r="10.8241"/>
    <circle class="a" cx="400" cy="373.5" r="22.5526"/>
    <circle class="a" cx="627" cy="335.5" r="7.1433"/>
    <circle class="a" cx="263" cy="342.5" r="7.1433"/>
    <circle class="a" cx="386" cy="453.5" r="9.8127"/>
    <circle class="a" cx="393" cy="642.5" r="10.8241"/>
    <circle class="a" cx="444" cy="571.5" r="19.6773"/>
  </g>
</svg>
