<svg xmlns="http://www.w3.org/2000/svg" viewBox="0 0 700 700">
  <defs>
    <style>
      .a {
        fill: #f2f2f2;
      }
    </style>
  </defs>
  <title>A6</title>
  <g>
    <path d="M699,1V699H1V1H699m1-1H0V700H700V0Z"/>
    <path class="a" d="M629.8893,419.0014l-112.594-41.9841a6.804,6.804,0,0,1-2.4763-11.1437l83.3371-84.8221c5.26-5.3532-.749-14.03-7.61-10.9891L480.6167,318.7772a6.8041,6.8041,0,0,1-9.5593-6.0826l-2.4133-118.948c-.1518-7.4781-10.5039-9.2716-13.1624-2.28L413.1946,302.67a6.8041,6.8041,0,0,1-11.0484,2.5123L315.0116,222.326c-5.4385-5.1714-14.0155.978-10.8634,7.7886l49.9456,107.9133a6.8041,6.8041,0,0,1-6.0807,9.6613l-120.1554,1.66c-7.5283.1041-9.3378,10.5482-2.2832,13.1787l112.594,41.984a6.8041,6.8041,0,0,1,2.4763,11.1438l-83.3371,84.8221c-5.26,5.3532.749,14.03,7.61,10.9891l109.9292-48.7148a6.8041,6.8041,0,0,1,9.5593,6.0826l2.4134,118.948c.1517,7.4781,10.5038,9.2716,13.1623,2.28L442.2693,478.86a6.804,6.804,0,0,1,11.0483-2.5123l87.1346,82.8561c5.4385,5.1714,14.0156-.978,10.8634-7.7886L501.37,443.5015a6.804,6.804,0,0,1,6.0807-9.6613l120.1554-1.66C635.1344,432.076,636.9439,421.6319,629.8893,419.0014ZM455.5969,441.776l-13.395-11.6271a6.8041,6.8041,0,0,0-10.69,2.4036l-7.129,16.2408a6.8041,6.8041,0,0,1-13.0174-2.2552l-1.25-17.6926a6.804,6.804,0,0,0-9.2587-5.86l-16.5257,6.4433a6.804,6.804,0,0,1-7.61-10.7994l11.627-13.395a6.8041,6.8041,0,0,0-2.4035-10.69l-16.2409-7.129a6.8041,6.8041,0,0,1,2.2552-13.0174l17.6926-1.25a6.804,6.804,0,0,0,5.86-9.2587l-6.4433-16.5257a6.8041,6.8041,0,0,1,10.7994-7.61l13.395,11.6271a6.8041,6.8041,0,0,0,10.69-2.4036l7.129-16.2409a6.8041,6.8041,0,0,1,13.0174,2.2553l1.25,17.6926a6.804,6.804,0,0,0,9.2587,5.86L471.1332,352.1a6.8041,6.8041,0,0,1,7.61,10.7994l-11.6271,13.395a6.8041,6.8041,0,0,0,2.4036,10.69l16.2409,7.129a6.8041,6.8041,0,0,1-2.2553,13.0174l-17.6926,1.25a6.804,6.804,0,0,0-5.86,9.2587l6.4433,16.5257A6.8041,6.8041,0,0,1,455.5969,441.776Z"/>
    <g>
      <g>
        <circle class="a" cx="571.2326" cy="463.1974" r="15.7448"/>
        <circle class="a" cx="283.4166" cy="317.176" r="15.7448"/>
        <circle class="a" cx="323.1011" cy="556.0893" r="15.7448"/>
        <circle class="a" cx="522.9977" cy="250.2049" r="15.7448"/>
      </g>
      <g>
        <circle class="a" cx="452.6885" cy="562.3019" r="15.7448"/>
        <circle class="a" cx="405.7702" cy="213.6569" r="15.7448"/>
        <circle class="a" cx="236.8447" cy="433.6817" r="15.7448"/>
        <circle class="a" cx="583.1087" cy="347.7849" r="15.7448"/>
      </g>
      <g>
        <circle class="a" cx="459.8369" cy="637.0249" r="8.3598"/>
        <circle class="a" cx="504.057" cy="576.276" r="5.3041"/>
        <circle class="a" cx="616.3212" cy="385.2993" r="9.7599"/>
        <circle class="a" cx="194.9552" cy="505.5863" r="8.6988"/>
        <circle class="a" cx="653.354" cy="340.6718" r="4.8476"/>
        <circle class="a" cx="609.354" cy="551.6718" r="4.8476"/>
        <circle class="a" cx="277.354" cy="584.6718" r="4.8476"/>
        <circle class="a" cx="219.5638" cy="278.7113" r="5.701"/>
      </g>
      <g>
        <circle class="a" cx="270.0079" cy="181.528" r="8.3598"/>
        <circle class="a" cx="447.9647" cy="144.3609" r="8.3598"/>
      </g>
    </g>
  </g>
</svg>
