<svg xmlns="http://www.w3.org/2000/svg" viewBox="0 0 700 700">
  <defs>
    <style>
      .a {
        fill: #f2f2f2;
      }
    </style>
  </defs>
  <title>A6</title>
  <g>
    <g>
      <path d="M699,1V699H1V1H699m1-1H0V700H700V0Z"/>
      <circle class="a" cx="263.6087" cy="341.3326" r="29.6098"/>
      <circle class="a" cx="243.0749" cy="509.6094" r="29.6098"/>
      <circle class="a" cx="440.1915" cy="228.5833" r="29.6098"/>
      <circle class="a" cx="556.0927" cy="324.3367" r="16.6469"/>
      <circle class="a" cx="263.3788" cy="454.6198" r="9.1571"/>
      <circle class="a" cx="216.8491" cy="286.267" r="9.1571"/>
      <circle class="a" cx="539.1728" cy="506.2254" r="9.1571"/>
      <circle class="a" cx="562.0146" cy="272.7311" r="9.1571"/>
      <circle class="a" cx="398.1998" cy="376.2504" r="19.0793"/>
      <circle class="a" cx="565.3986" cy="359.0225" r="6.0432"/>
      <circle class="a" cx="210.9271" cy="370.0204" r="6.0432"/>
      <circle class="a" cx="387.7399" cy="446.1599" r="8.3014"/>
      <circle class="a" cx="430.8856" cy="555.2931" r="9.1571"/>
      <circle class="a" cx="478.2612" cy="584.0569" r="16.6469"/>
    </g>
    <path class="a" d="M274.0649,424.167l26.3842,18.3671a20.2407,20.2407,0,0,0,31.7325-14.903l2.7142-32.0329a20.2407,20.2407,0,0,0-28.7726-20.03l-29.0984,13.6659A20.2406,20.2406,0,0,0,274.0649,424.167Z"/>
    <path class="a" d="M439.0337,524.84l26.3842,18.367A20.2406,20.2406,0,0,0,497.15,528.3044l2.7142-32.0329a20.2406,20.2406,0,0,0-28.7726-20.03l-29.0984,13.6659A20.2406,20.2406,0,0,0,439.0337,524.84Z"/>
    <path class="a" d="M508.6356,256.9681l-70.386,26.1A20.2406,20.2406,0,0,0,432.37,317.63l57.7966,47.9059a20.2406,20.2406,0,0,0,32.8706-12.189L535.6269,279.34A20.2407,20.2407,0,0,0,508.6356,256.9681Z"/>
    <path class="a" d="M572.28,386.6822,380.2939,248.348c-26.201-18.8791-63.0138-2.315-66.2629,29.8154L290.2227,513.595c-3.2491,32.13,29.5022,55.729,58.9524,42.4777L564.969,458.9754C594.4192,445.7241,598.4808,405.5612,572.28,386.6822Zm-111.4245,46.97-7.4141,3.3361-.7382,8.712a17.1235,17.1235,0,0,1-26.8456,12.6078l-7.7729-5.4109L399.2783,461.36A24.9553,24.9553,0,0,1,364.21,436.0911l.9632-9.5245-15.17-10.56a17.1235,17.1235,0,0,1,2.5041-29.5528l17.5559-8.2451.94-9.298a24.9553,24.9553,0,0,1,39.4174-17.7361l12.43,8.9564,26.0564-12.2373a17.1235,17.1235,0,0,1,24.3415,16.945l-2.6352,31.1A24.9793,24.9793,0,0,1,460.8552,433.6527Z"/>
  </g>
</svg>
