<svg xmlns="http://www.w3.org/2000/svg" viewBox="0 0 700 700">
  <defs>
    <style>
      .a {
        fill: #f2f2f2;
      }
    </style>
  </defs>
  <title>A7</title>
  <g>
    <path d="M699,1V699H1V1H699m1-1H0V700H700V0Z"/>
    <g>
      <g>
        <polygon class="a" points="403.954 380.943 383.832 316.742 446.4 125.224 443.739 326.686 403.954 380.943"/>
        <polygon class="a" points="397.455 420.096 417.577 484.298 355.009 675.815 357.67 474.354 397.455 420.096"/>
        <polygon class="a" points="420.281 403.769 484.482 383.647 676 446.216 474.538 443.554 420.281 403.769"/>
        <polygon class="a" points="381.128 397.27 316.927 417.393 125.409 354.824 326.871 357.485 381.128 397.27"/>
        <polygon class="a" points="437.928 373.894 462.863 326.194 606.596 253.249 491.127 365.707 437.928 373.894"/>
        <polygon class="a" points="363.481 427.146 338.546 474.846 194.813 547.791 310.282 435.332 363.481 427.146"/>
        <polygon class="a" points="427.33 437.744 475.031 462.679 547.975 606.412 435.517 490.942 427.33 437.744"/>
        <polygon class="a" points="374.079 363.296 326.378 338.361 253.434 194.628 365.892 310.098 374.079 363.296"/>
      </g>
      <g>
        <g>
          <polygon class="a" points="373.645 284.014 344.207 263.734 354.495 201.562 391.132 252.835 373.645 284.014"/>
          <polygon class="a" points="427.764 517.026 457.202 537.306 446.914 599.478 410.277 548.205 427.764 517.026"/>
          <polygon class="a" points="517.211 373.461 537.491 344.022 599.662 354.311 548.389 390.947 517.211 373.461"/>
          <polygon class="a" points="284.198 427.579 263.918 457.018 201.747 446.729 253.02 410.093 284.198 427.579"/>
        </g>
        <g>
          <polygon class="a" points="463.953 299.004 457.477 263.847 508.714 227.161 498.365 289.322 463.953 299.004"/>
          <polygon class="a" points="337.456 502.036 343.932 537.192 292.695 573.879 303.044 511.718 337.456 502.036"/>
          <polygon class="a" points="502.221 463.768 537.377 457.293 574.064 508.529 511.902 498.18 502.221 463.768"/>
          <polygon class="a" points="299.188 337.271 264.032 343.747 227.345 292.51 289.507 302.86 299.188 337.271"/>
        </g>
      </g>
      <g>
        <g>
          <polygon class="a" points="326.817 165.483 306.379 151.404 313.522 108.24 338.957 143.837 326.817 165.483"/>
          <polygon class="a" points="469.157 631.437 484.095 641.728 478.875 673.276 460.284 647.258 469.157 631.437"/>
          <polygon class="a" points="623.989 386.699 635.409 370.123 670.417 375.916 641.546 396.546 623.989 386.699"/>
          <polygon class="a" points="155.676 418.354 143.084 436.633 104.479 430.245 136.316 407.496 155.676 418.354"/>
        </g>
        <g>
          <polygon class="a" points="538.481 232.159 532.005 197.003 583.242 160.316 572.892 222.478 538.481 232.159"/>
          <polygon class="a" points="249.489 571.479 253.441 592.93 222.178 615.314 228.493 577.387 249.489 571.479"/>
          <polygon class="a" points="603.07 525.916 620.925 522.627 639.557 548.649 607.987 543.393 603.07 525.916"/>
          <polygon class="a" points="231.076 261.49 213.112 264.799 194.365 238.618 226.129 243.906 231.076 261.49"/>
        </g>
      </g>
    </g>
  </g>
</svg>
