<svg xmlns="http://www.w3.org/2000/svg" viewBox="0 0 700 700">
  <defs>
    <style>
      .a {
        fill: #f2f2f2;
      }
    </style>
  </defs>
  <title>A7</title>
  <g>
    <path d="M699,1V699H1V1H699m1-1H0V700H700V0Z"/>
    <path class="a" d="M611.1762,412.0237l-93.8809-35.0064a6.804,6.804,0,0,1-2.4763-11.1437l99.116-100.8822a2.508,2.508,0,0,0-2.8051-4.0507L480.6167,318.7772a6.8041,6.8041,0,0,1-9.5593-6.0826l-2.4133-118.948c-.1518-7.4781-10.5039-9.2716-13.1624-2.28l-32.1782,84.62a25.7223,25.7223,0,0,1-41.7678,9.4977l-50.9566-48.4545c-8.7148-8.2868-22.459,1.5672-17.4079,12.4808l40.9226,88.418a6.8041,6.8041,0,0,1-6.0807,9.6613l-120.1554,1.66c-7.5283.1041-9.3378,10.5482-2.2832,13.1787l112.594,41.984a6.8041,6.8041,0,0,1,2.4763,11.1438l-96.8513,98.5771a3.1246,3.1246,0,0,0,3.4949,5.0465l127.5587-56.5272a6.8041,6.8041,0,0,1,9.5593,6.0826l2.4134,118.948c.1517,7.4781,10.5038,9.2716,13.1623,2.28L442.2693,478.86a6.804,6.804,0,0,1,11.0483-2.5123l68.471,65.1089c9.3664,8.9065,24.1383-1.6844,18.71-13.4139L501.37,443.5015a6.804,6.804,0,0,1,6.0807-9.6613l100.1856-1.3842C619.3083,432.2947,622.1137,416.102,611.1762,412.0237Zm-153.2007,28.123-18.6635-16.2a5.7668,5.7668,0,0,0-9.0607,2.0371l-2.4278,5.531c-3.3522,7.6366-14.6935,5.6717-15.2813-2.6475l-.4257-6.0254a5.7669,5.7669,0,0,0-7.8474-4.9664l-9.4163,3.6714a6.9834,6.9834,0,0,1-7.81-11.0841l6.625-7.6324A5.7669,5.7669,0,0,0,391.63,393.77l-22.8368-10.0244a3.32,3.32,0,0,1,1.1006-6.3526l23.2908-1.6456a6.9388,6.9388,0,0,0,5.9757-9.4421l-4.883-12.5239a5.7668,5.7668,0,0,1,9.1531-6.45l11.3531,9.8546a5.7669,5.7669,0,0,0,9.0607-2.0372l6.0423-13.7651a5.7668,5.7668,0,0,1,11.033,1.9115l1.06,14.9955a5.7669,5.7669,0,0,0,7.8474,4.9665l4.134-1.6119c8.1555-3.18,15.1143,6.6956,9.3764,13.3061l-2.9086,3.3509a5.7668,5.7668,0,0,0,2.0371,9.0607l13.7651,6.0423a5.7668,5.7668,0,0,1-1.9115,11.033l-4.3617.3082A13.6177,13.6177,0,0,0,458.23,423.2768l5.1051,13.0935A3.3765,3.3765,0,0,1,457.9755,440.1467Z"/>
    <g>
      <g>
        <circle class="a" cx="571.2326" cy="463.1974" r="15.7448"/>
        <circle class="a" cx="283.4166" cy="317.176" r="15.7448"/>
        <circle class="a" cx="323.1011" cy="556.0893" r="15.7448"/>
        <circle class="a" cx="522.9977" cy="250.2049" r="15.7448"/>
      </g>
      <g>
        <circle class="a" cx="452.6885" cy="562.3019" r="15.7448"/>
        <circle class="a" cx="432.6885" cy="393.3019" r="20.3317"/>
        <circle class="a" cx="405.7702" cy="213.6569" r="15.7448"/>
        <circle class="a" cx="236.8447" cy="433.6817" r="15.7448"/>
        <circle class="a" cx="583.1087" cy="347.7849" r="15.7448"/>
      </g>
      <g>
        <circle class="a" cx="459.8369" cy="637.0249" r="8.3598"/>
        <circle class="a" cx="504.057" cy="576.276" r="5.3041"/>
        <circle class="a" cx="616.3212" cy="385.2993" r="9.7599"/>
        <circle class="a" cx="194.9552" cy="505.5863" r="8.6988"/>
        <circle class="a" cx="653.354" cy="340.6718" r="4.8476"/>
        <circle class="a" cx="609.354" cy="551.6718" r="4.8476"/>
        <circle class="a" cx="277.354" cy="584.6718" r="4.8476"/>
        <circle class="a" cx="219.5638" cy="278.7113" r="5.701"/>
      </g>
      <g>
        <circle class="a" cx="270.0079" cy="181.528" r="8.3598"/>
        <circle class="a" cx="447.9647" cy="144.3609" r="8.3598"/>
      </g>
    </g>
  </g>
</svg>
