<svg xmlns="http://www.w3.org/2000/svg" viewBox="0 0 700 700">
  <defs>
    <style>
      .a {
        fill: #f2f2f2;
      }
    </style>
  </defs>
  <title>A8</title>
  <g>
    <path d="M699,1V699H1V1H699m1-1H0V700H700V0Z"/>
    <path class="a" d="M453.7264,610.005l9.4366-141.4326a.7593.7593,0,0,1,1.1125-.6207l144.8877,76.59L501.9422,419.147a.7593.7593,0,0,1,.3451-1.2165l151.5671-48.647a.7593.7593,0,0,0-.1766-1.48l-130.3925-9.5477a19.6777,19.6777,0,0,1-16.1075-28.536l50.3027-99.0408a4.8583,4.8583,0,0,0-7.5489-5.84L446.2075,316.5037a.7594.7594,0,0,1-1.2273-.3416L396.5555,161.8637a.7593.7593,0,0,0-1.4821.1769L384.3072,323.4a.7593.7593,0,0,1-1.1125.6208l-144.8876-76.59L345.528,372.8259a.7594.7594,0,0,1-.345,1.2165l-151.5671,48.647a.7593.7593,0,0,0,.1766,1.48L352.55,435.7944a.7594.7594,0,0,1,.6216,1.1012L291.9244,557.485a5.6736,5.6736,0,0,0,8.8156,6.8205l100.5227-88.8363a.7594.7594,0,0,1,1.2273.3416l42.4445,135.2431A4.5043,4.5043,0,0,0,453.7264,610.005ZM379.4431,451.5591l19.0385-42.1146-38.0591-4.7183a1.9426,1.9426,0,0,1-.4468-3.7454l35.8809-13.5395-26.075-33.4554a.9387.9387,0,0,1,1.127-1.4324l38.6507,17.4727,5.6862-45.8666,15.8885,42.1058a.894.894,0,0,0,1.386.3895l35.4962-27.6656-19.0386,42.1145,45.8666,5.6863-43.2415,16.317,22.59,28.9836a2.3387,2.3387,0,0,1-2.808,3.5687L437.9,420.5222l-5.6863,45.8665L419.5271,432.768a7.5731,7.5731,0,0,0-11.7409-3.2995Z"/>
    <g>
      <g>
        <circle class="a" cx="395.4068" cy="554.2155" r="15.7448"/>
        <path class="a" d="M462.4449,245.0149C456,250,446,249,442,243c-9-16,3-41,20-42,13,0,12,20,9.4028,29.6267C469.7131,236.74,466.5938,241.8688,462.4449,245.0149Z"/>
        <circle class="a" cx="235.3792" cy="343.0538" r="15.7448"/>
        <path class="a" d="M572.9218,454.7547C567,448,571,437,578,433c14-7,32,3,36,16,4,15-18,16-28.6665,13.3224C579.9486,461.1589,575.5329,458.5546,572.9218,454.7547Z"/>
      </g>
      <g>
        <path class="a" d="M268.6251,482.0866c-4.02,1.5966-9.6855,3.1271-12.4091-1.9312-4.4764-8.3135,5.0707-30.52,21.633-31.8635,6.6879-.0857,12.5708,6.0592,11.7658,12.29-1.1951,8.5784-7.5928,12.4572-13.6778,17.2128A42.817,42.817,0,0,1,268.6251,482.0866Z"/>
        <circle class="a" cx="422.7227" cy="401.4619" r="20.3317"/>
        <path class="a" d="M560.9232,355.3507c-5.773-1.5424-11.2138-7.6633-7.8133-13.1041C559.2308,332.7253,579,330,581.674,336.1257c2.0427,4.68-4.0806,12.9219-10.159,17.195C567.8812,355.1719,564.1585,355.9633,560.9232,355.3507Z"/>
        <path class="a" d="M325.4618,255.9238C320.1852,249.0121,313.0883,226.2766,320,221s25.2145,8.9039,30.4911,15.8156a15.7448,15.7448,0,0,1-25.0293,19.1082Z"/>
        <path class="a" d="M495.75,531.5C497,527,499,523,503,521c10-4,22,3,25,13,2,8,2,18-5,23-10,5-19-3-24.5092-11.1088A21.78,21.78,0,0,1,495.75,531.5Z"/>
      </g>
      <g>
        <circle class="a" cx="196.9674" cy="497.2348" r="8.3598"/>
        <circle class="a" cx="267.8317" cy="522.2167" r="5.3041"/>
        <path class="a" d="M486.7361,600.1017a13.5691,13.5691,0,0,1-7.933-14.641c1.1677-5.8343,6.5164-8.9456,11.9264-6.991s8.9333,8.4493,7.8976,14.5668S492.2785,602.34,486.7361,600.1017Z"/>
        <circle class="a" cx="247.0903" cy="205.8139" r="8.6988"/>
        <path class="a" d="M532.5522,599.7717a4.6111,4.6111,0,0,1,5.9938-3.2971,5.4869,5.4869,0,0,1,3.4939,6.48,4.5871,4.5871,0,0,1-5.9954,3.2914A5.4868,5.4868,0,0,1,532.5522,599.7717Z"/>
        <circle class="a" cx="321.5454" cy="616.0659" r="4.8476"/>
        <circle class="a" cx="194.8984" cy="307.4017" r="4.8476"/>
        <circle class="a" cx="471.5169" cy="164.455" r="5.701"/>
      </g>
      <g>
        <circle class="a" cx="579.0727" cy="184.972" r="8.3598"/>
        <circle class="a" cx="643.6209" cy="413.845" r="8.3598"/>
      </g>
    </g>
  </g>
</svg>
