<svg xmlns="http://www.w3.org/2000/svg" viewBox="0 0 700 700">
  <defs>
    <style>
      .a {
        fill: #f2f2f2;
      }
    </style>
  </defs>
  <title>A9</title>
  <g>
    <path d="M699,1V699H1V1H699m1-1H0V700H700V0Z"/>
    <g>
      <g>
        <path class="a" d="M398.4134,374.6806l-18.57-59.2486a2.2593,2.2593,0,0,1,.0082-1.3773l57.7418-176.7432a2.2592,2.2592,0,0,1,4.4065.7314l-2.456,185.92a2.2588,2.2588,0,0,1-.4371,1.3061l-36.7158,50.0719A2.2592,2.2592,0,0,1,398.4134,374.6806Z"/>
        <path class="a" d="M390.2949,457.9348l15.0373,47.9775a1.8289,1.8289,0,0,1-.0067,1.1152L358.5682,650.1481A1.8294,1.8294,0,0,1,355,649.5558l1.9888-150.5516a1.829,1.829,0,0,1,.3539-1.0576L387.0739,457.4A1.8294,1.8294,0,0,1,390.2949,457.9348Z"/>
        <path class="a" d="M448.2174,404.9183l47.4293-14.8655a1.8085,1.8085,0,0,1,1.1025.0066l141.4853,46.2231a1.8085,1.8085,0,0,1-.5855,3.5274l-148.8315-1.966a1.8088,1.8088,0,0,1-1.0455-.35l-40.0832-29.3916A1.8084,1.8084,0,0,1,448.2174,404.9183Z"/>
        <path class="a" d="M357.5924,396.5835,307.966,412.1376a1.8926,1.8926,0,0,1-1.1536-.0069l-148.04-48.3643a1.8923,1.8923,0,0,1,.6127-3.6909l155.726,2.0571a1.8923,1.8923,0,0,1,1.0939.3661l41.94,30.7531A1.8923,1.8923,0,0,1,357.5924,396.5835Z"/>
        <path class="a" d="M431.9979,376.9353l22.53-43.1009a2.26,2.26,0,0,1,.98-.968l129.8728-65.9106a2.2592,2.2592,0,0,1,2.5986,3.6331L483.6448,372.203a2.259,2.259,0,0,1-1.2326.6144l-48.0685,7.3974A2.2592,2.2592,0,0,1,431.9979,376.9353Z"/>
        <path class="a" d="M376.1862,418.2583l-22.4656,42.9769a2.2531,2.2531,0,0,1-.9769.9652L223.2444,527.9215a2.2527,2.2527,0,0,1-2.5912-3.6226L324.6878,422.977a2.2529,2.2529,0,0,1,1.2291-.6127l47.93-7.3761A2.2527,2.2527,0,0,1,376.1862,418.2583Z"/>
        <path class="a" d="M420.2891,428.8133l43.1009,22.53a2.2591,2.2591,0,0,1,.968.98l65.9106,129.8727a2.2592,2.2592,0,0,1-3.6331,2.5987L425.0215,480.46a2.2585,2.2585,0,0,1-.6145-1.2326L417.01,431.1591A2.2592,2.2592,0,0,1,420.2891,428.8133Z"/>
        <path class="a" d="M370.12,357.2265l-43.1009-22.53a2.2594,2.2594,0,0,1-.968-.98L260.14,203.8436a2.2592,2.2592,0,0,1,3.6331-2.5986L365.3875,305.58a2.2585,2.2585,0,0,1,.6145,1.2326l7.3974,48.0686A2.2592,2.2592,0,0,1,370.12,357.2265Z"/>
      </g>
      <g>
        <g>
          <path class="a" d="M372.4133,259.453l-13.5765-11.871a1.6552,1.6552,0,0,1-.5015-1.7021l8.7627-30.56a1.655,1.655,0,0,1,3.0392-.3448l15.386,27.8206a1.655,1.655,0,0,1-.1075,1.7712l-10.5721,14.6107A1.6551,1.6551,0,0,1,372.4133,259.453Z"/>
          <path class="a" d="M430.32,532.7874l25.4017,17.499a2.8308,2.8308,0,0,1,1.1868,2.7933l-8.8776,53.6464a2.8307,2.8307,0,0,1-5.0959,1.1835l-31.6129-44.2421a2.8309,2.8309,0,0,1-.1658-3.0305l15.0889-26.9032A2.8306,2.8306,0,0,1,430.32,532.7874Z"/>
          <path class="a" d="M526.9153,370.16l13.832-20.0784a2.2373,2.2373,0,0,1,2.2079-.9381l42.4041,7.0172a2.2375,2.2375,0,0,1,.9356,4.028l-34.9708,24.988a2.2372,2.2372,0,0,1-2.3953.131L527.6634,373.381A2.2375,2.2375,0,0,1,526.9153,370.16Z"/>
          <path class="a" d="M279.4371,425.1357,261.938,450.5373a2.8308,2.8308,0,0,1-2.7933,1.1868l-53.6464-8.8776a2.8307,2.8307,0,0,1-1.1835-5.0959l44.2422-31.6129a2.8307,2.8307,0,0,1,3.03-.1657l26.9033,15.0888A2.8309,2.8309,0,0,1,279.4371,425.1357Z"/>
        </g>
        <g>
          <path class="a" d="M469.3907,295.9507l-5.5879-30.3354a2.83,2.83,0,0,1,1.1359-2.8143L509.15,231.1447a2.8307,2.8307,0,0,1,4.44,2.7664l-8.93,53.6377a2.8307,2.8307,0,0,1-2.0256,2.26l-29.6929,8.354A2.8308,2.8308,0,0,1,469.3907,295.9507Z"/>
          <path class="a" d="M338.0183,505.0891l5.5879,30.3354a2.8306,2.8306,0,0,1-1.1359,2.8144l-44.2111,31.6563a2.8308,2.8308,0,0,1-4.44-2.7665l8.93-53.6376a2.8308,2.8308,0,0,1,2.0256-2.26l29.6929-8.354A2.8308,2.8308,0,0,1,338.0183,505.0891Z"/>
          <path class="a" d="M492.1862,460.8278l24.6437-4.54a2.3,2.3,0,0,1,2.2863.9228l25.7168,35.916a2.3,2.3,0,0,1-2.2474,3.6072L499.0118,489.48a2.3,2.3,0,0,1-1.836-1.6456l-6.7867-24.1218A2.3,2.3,0,0,1,492.1862,460.8278Z"/>
          <path class="a" d="M296.1353,337.8337,265.8,343.4216a2.83,2.83,0,0,1-2.8143-1.1359l-31.6563-44.2111a2.8307,2.8307,0,0,1,2.7664-4.44l53.6376,8.93a2.8308,2.8308,0,0,1,2.26,2.0256l8.354,29.693A2.8306,2.8306,0,0,1,296.1353,337.8337Z"/>
        </g>
      </g>
      <g>
        <g>
          <path class="a" d="M322.5491,154.0053l-8.68-5.98a2.9352,2.9352,0,0,1-1.2307-2.8964l3.0337-18.3324a2.9352,2.9352,0,0,1,5.284-1.2272l10.803,15.1187a2.9354,2.9354,0,0,1,.1719,3.1423l-5.1563,9.1936A2.9352,2.9352,0,0,1,322.5491,154.0053Z"/>
          <path class="a" d="M477.1,582.8713l6.8247,2.4187a3.3542,3.3542,0,0,1,2.2174,2.8311l1.257,12.7021a3.3541,3.3541,0,0,1-5.4669,2.9219l-9.8626-8.1025a3.3541,3.3541,0,0,1-1.1219-3.4166l1.7809-7.0182A3.354,3.354,0,0,1,477.1,582.8713Z"/>
          <path class="a" d="M506.6708,614.5227l3.8535,1.4058a1.9,1.9,0,0,1,1.2413,1.6153l.6459,7.202a1.9,1.9,0,0,1-3.1122,1.6268l-5.5447-4.6414a1.9,1.9,0,0,1-.6177-1.9413l1.0454-3.9664A1.9,1.9,0,0,1,506.6708,614.5227Z"/>
          <path class="a" d="M626.89,382.4888l6.8391-9.9278a4.6629,4.6629,0,0,1,4.6009-1.9549l20.9667,3.47a4.6626,4.6626,0,0,1,1.9495,8.3937l-17.2912,12.3553a4.6628,4.6628,0,0,1-4.9916.273l-10.5146-5.8972A4.6626,4.6626,0,0,1,626.89,382.4888Z"/>
          <path class="a" d="M609.4617,308.4213l2.8105-4.7887a2.1474,2.1474,0,0,1,2.0483-1.0515l9.7472.8942a2.1475,2.1475,0,0,1,1.1757,3.7908l-7.5309,6.2527a2.1475,2.1475,0,0,1-2.2839.2919l-5.0269-2.3582A2.1475,2.1475,0,0,1,609.4617,308.4213Z"/>
          <path class="a" d="M152.7755,422.5647l-8.0121,11.63a4.6624,4.6624,0,0,1-4.6009,1.9549L115.6,432.0852a4.6626,4.6626,0,0,1-1.95-8.3937l20.2565-14.4742a4.6628,4.6628,0,0,1,4.9916-.273l12.3178,6.9085A4.6627,4.6627,0,0,1,152.7755,422.5647Z"/>
          <path class="a" d="M178.8542,518.2836l-2.4242,6.149a2.182,2.182,0,0,1-1.8912,1.3773l-11.628.7417a2.1822,2.1822,0,0,1-1.7756-3.621l7.7064-8.7391a2.182,2.182,0,0,1,2.2469-.6518l6.3459,1.8485A2.1821,2.1821,0,0,1,178.8542,518.2836Z"/>
        </g>
        <g>
          <path class="a" d="M545.5985,215.2521l-2.9353-15.935a2.73,2.73,0,0,1,1.0955-2.7143l23.2239-16.6289a2.73,2.73,0,0,1,4.2823,2.6681l-4.6911,28.1755a2.73,2.73,0,0,1-1.9535,2.18l-15.5976,4.3883A2.73,2.73,0,0,1,545.5985,215.2521Z"/>
          <path class="a" d="M460.578,224.2181l-1.8553-5.7419a1.0164,1.0164,0,0,1,.2731-1.0552l7.77-7.2645a1.0167,1.0167,0,0,1,1.71.7778l-.3681,10.6309a1.0167,1.0167,0,0,1-.6158.8994l-5.5469,2.3755A1.0167,1.0167,0,0,1,460.578,224.2181Z"/>
          <path class="a" d="M250.4155,576.5078l2.4887,13.51a4.6627,4.6627,0,0,1-1.8711,4.6357l-19.69,14.0983a4.6627,4.6627,0,0,1-7.3138-4.5568l3.9772-23.8877a4.6627,4.6627,0,0,1,3.3365-3.7227l13.2239-3.7205A4.6626,4.6626,0,0,1,250.4155,576.5078Z"/>
          <path class="a" d="M608.0981,524.99l9.9145-1.8263a4.6626,4.6626,0,0,1,4.6357,1.871l10.3462,14.4495a4.6627,4.6627,0,0,1-4.5568,7.3138l-17.53-2.9187a4.6626,4.6626,0,0,1-3.7226-3.3365l-2.73-9.7045A4.6627,4.6627,0,0,1,608.0981,524.99Z"/>
          <path class="a" d="M218.6245,247.4109l-6.027,1.11a2.8033,2.8033,0,0,1-2.7873-1.125l-6.2894-8.7838a2.8035,2.8035,0,0,1,2.74-4.3975l10.6567,1.7742a2.8037,2.8037,0,0,1,2.2383,2.0062l1.66,5.8993A2.8035,2.8035,0,0,1,218.6245,247.4109Z"/>
        </g>
      </g>
    </g>
  </g>
</svg>
