<svg xmlns="http://www.w3.org/2000/svg" viewBox="0 0 700 700">
  <defs>
    <style>
      .a {
        fill: #f2f2f2;
      }
    </style>
  </defs>
  <title>B7</title>
  <g>
    <path d="M699,1V699H1V1H699m1-1H0V700H700V0Z"/>
    <path class="a" d="M182.4591,448.29c24.4168,8.0128,55.1842,16.1148,65.4619,42.7231,11.045,28.595-10.9831,56.324-39.7674,59.7107C135.49,559.2733,126.6207,431.3973,182.4591,448.29Z"/>
    <g>
      <path class="a" d="M211.2187,553.4524c25.7926-3.18,41.947,27.2334,12.0293,34.8436C195.7637,595.2872,179.7938,557.946,211.2187,553.4524Z"/>
      <path class="a" d="M176.25,392.6129c20.1438,10.0941,32.5533,57.4112-1.1783,48.4876C149.0249,434.21,148.9188,378.7533,176.25,392.6129Z"/>
      <path class="a" d="M137.7,495.5619c1.1169,31.4363-25.4468,24.9011-29.3637-1.6049C103.2321,459.4154,133.4905,465.6549,137.7,495.5619Z"/>
      <path class="a" d="M308.2756,505.1338c6.5678,22.3426-35.2181,16.6582-38.9162-2.9541C264.4472,476.129,304.7217,486.61,308.2756,505.1338Z"/>
    </g>
    <g>
      <path class="a" d="M159.0481,539.52c22.41,17.666.4648,48.4464-20.5551,25.7817C121.8207,547.3245,136.8406,516.5611,159.0481,539.52Z"/>
      <path class="a" d="M260.6044,437.4446c24.9971,25.7372-10.582,43.052-30.8808,21.4018C205.6,433.1173,240.3214,419.8712,260.6044,437.4446Z"/>
      <path class="a" d="M145.5142,452.3291c-5.0891,22.0054-49.686-23.4195-20.4062-44.1931C149.0857,391.1242,154.7557,438.318,145.5142,452.3291Z"/>
      <path class="a" d="M290.4256,564.6129c-13.0781,16.3745-47.873-.7955-36.2319-21.4242C266.9931,520.5076,305.7092,543.7065,290.4256,564.6129Z"/>
    </g>
    <g>
      <g>
        <path class="a" d="M336.7925,542.7209c5.3153,9.8562-7.4247,16.8337-14.3222,8.7544C313.617,541.1053,330.9112,530.3727,336.7925,542.7209Z"/>
        <path class="a" d="M92.9255,420.5981c1.4076,8.1375-1.7028,24.75-12.0127,14.6608S89.4865,401.815,92.9255,420.5981Z"/>
        <path class="a" d="M173.6708,629.6944c-11.0663,2.9672-22.897-11.3312-9.516-16.7078C174.0744,609.0007,186.84,624.6674,173.6708,629.6944Z"/>
        <path class="a" d="M243.99,390.29c-13.24,1.4953-20.67-16.2631-8.6625-23.1844C251.2939,357.9027,260.65,387.3019,243.99,390.29Z"/>
        <path class="a" d="M97.99,331.29c-13.24,1.4953-20.67-16.2631-8.6625-23.1844C105.2939,298.9027,114.65,328.3019,97.99,331.29Z"/>
        <path class="a" d="M310.0157,453.1436c-7.5338,4.1368-10.9276-10.114-2.8239-12.7837C316.2439,437.3777,316.4921,449.3385,310.0157,453.1436Z"/>
        <path class="a" d="M465.08,611.1162c-3.08-.1162-7.6213,1.053-6.3507-3.0316S475.88,606.1192,465.08,611.1162Z"/>
        <path class="a" d="M368.4524,598.6921c-4.9415,1.19-15.1482.9888-17.3911-5.346C348.9149,587.2834,373.4708,595.7405,368.4524,598.6921Z"/>
        <path class="a" d="M270.7217,645.9768c-7.18,3.1124-18.9414-3.55-9.05-9.5876C268.6368,632.1382,282.318,642.0485,270.7217,645.9768Z"/>
        <path class="a" d="M382.986,650.4943c-1.365,1.0028-10.8666.2615-8.4263-2.1164s3.14-6.0063,11.3548-2.8326Q387.3065,649.2367,382.986,650.4943Z"/>
        <path class="a" d="M470.986,628.4943c-1.365,1.0028-7.8666,1.2615-8.4263-2.1164s3.14-6.0063,11.3548-2.8326Q475.3065,627.2367,470.986,628.4943Z"/>
        <path class="a" d="M494.986,616.4943c-1.365,1.0028-8.8666.2615-8.4263-2.1164s3.14-6.0063,11.3548-2.8326Q499.3065,615.2367,494.986,616.4943Z"/>
        <path class="a" d="M114.2374,604.1959c-13.36,1.7391-8.1813-13.7259-3.2093-10.4609S124.3249,601.8047,114.2374,604.1959Z"/>
        <path class="a" d="M51.9755,488.7046c-6.5825,3.1652-11.0145-9.0225-4.681-11.6622C53.9851,474.2539,58.0175,485.7993,51.9755,488.7046Z"/>
        <path class="a" d="M129.2025,278.2615c-12.883,3.6775-3.9179-8.1085-.56-9.185S140.1633,274.5393,129.2025,278.2615Z"/>
      </g>
      <g>
        <path class="a" d="M303.4735,610.9226c.7358,11.5833-32.0987,6.51-29.5955-5.7614C276.5516,592.0546,302.7843,600.0727,303.4735,610.9226Z"/>
        <path class="a" d="M422.4735,628.9226c.7358,11.5833-32.0987,6.51-29.5955-5.7614C395.5516,610.0546,421.7843,618.0727,422.4735,628.9226Z"/>
        <path class="a" d="M153.1471,343.9822c-8.6072,12.0027-18.7032-7.9479-10.4126-15.822C153.6844,317.76,159.2914,335.4139,153.1471,343.9822Z"/>
        <path class="a" d="M92.3707,551.6458c-8.1894-6.1988-9.3868-25.78,4.989-19.5769C107.0966,536.2705,105.0015,561.2064,92.3707,551.6458Z"/>
        <path class="a" d="M314.5339,474.7692c-9.4767-.6529-9.9434-18.3152,2.2585-16.4436C327.42,459.9557,328.6472,480.3568,314.5339,474.7692Z"/>
      </g>
    </g>
  </g>
</svg>
