<svg xmlns="http://www.w3.org/2000/svg" viewBox="0 0 700 700">
  <defs>
    <style>
      .a {
        fill: #f2f2f2;
      }
    </style>
  </defs>
  <title>BG1</title>
  <g>
    <path d="M699,1V699H1V1H699m1-1H0V700H700V0Z"/>
    <path class="a" d="M474.794,515.9893l31.2725-247.9619L313.2335,146.2555,136.2241,322.4191l118.88,207.9658ZM309.6724,184.4472l28.8384,16.604-6.1718,35.63-40.3015,8.7258-14.5231-33.6782Zm53.9017,57.1707,9.6825,5.5748-2.0722,11.9628-13.5312,2.93-4.8761-11.3074Zm49.3141,230.6192,23.0331-21.8591,30.0432,8.8458-6.9925,33.8077L429.34,502.0274Z"/>
    <polygon class="a" points="549.238 410.04 504.434 433.074 513.917 335.533 562.316 352.821 549.238 410.04"/>
    <polygon class="a" points="215.246 198.07 236.559 202.301 207.203 232.711 195.487 213.894 215.246 198.07"/>
    <polygon class="a" points="110.85 425.368 143.114 365.844 206.523 481.28 139.707 498.78 110.85 425.368"/>
    <polygon class="a" points="350.607 601.687 336.178 567.32 405.705 558.617 400.389 601.881 350.607 601.687"/>
    <polygon class="a" points="460.423 159.569 446.324 194.073 391.007 151.065 425.359 124.231 460.423 159.569"/>
  </g>
</svg>
