<svg xmlns="http://www.w3.org/2000/svg" viewBox="0 0 700 700">
  <defs>
    <style>
      .a {
        fill: #f2f2f2;
      }
    </style>
  </defs>
  <title>BG1</title>
  <g>
    <path d="M699,1V699H1V1H699m1-1H0V700H700V0Z"/>
    <path class="a" d="M510.84,541.92,547.676,249.846,320.5385,106.4111,112.04,313.9138l140.028,244.9626ZM316.3439,151.3971l33.9686,19.5577-7.27,41.9686-47.471,10.278L278.465,183.532Zm63.4907,67.3412,11.405,6.5665-2.4409,14.091L372.86,242.8466l-5.7436-13.319Zm58.087,271.6459,27.1306-25.7477L500.44,475.0559l-8.2364,39.8219L457.3,525.4742Z"/>
    <polygon class="a" points="587.734 417.925 533.801 442.675 550.086 328.396 606.129 351.282 587.734 417.925"/>
    <polygon class="a" points="205.12 167.443 230.224 172.427 195.645 208.247 181.845 186.082 205.12 167.443"/>
    <polygon class="a" points="146.649 251.117 160.105 253.788 141.571 272.988 134.174 261.108 146.649 251.117"/>
    <polygon class="a" points="83.878 430.829 136.606 333.552 240.233 522.206 131.039 550.806 83.878 430.829"/>
    <polygon class="a" points="349.418 629.227 326.123 565.108 454.002 555.434 440.403 634.046 349.418 629.227"/>
    <polygon class="a" points="505.647 163.81 486.558 226.538 382.676 160.19 438.488 107.607 505.647 163.81"/>
  </g>
</svg>
