<svg xmlns="http://www.w3.org/2000/svg" viewBox="0 0 700 700">
  <defs>
    <style>
      .a {
        fill: #f2f2f2;
      }
    </style>
  </defs>
  <title>BG2</title>
  <g>
    <path d="M699,1V699H1V1H699m1-1H0V700H700V0Z"/>
    <polygon class="a" points="418.705 381.322 125.361 543.318 285.897 92.357 468.325 213.489 418.705 381.322"/>
    <polygon class="a" points="552.5 299.733 401.337 383.21 444.584 249.974 578.069 213.247 552.5 299.733"/>
    <polygon class="a" points="225.7 247.72 181.152 365.233 109.173 284.082 195.279 234.462 225.7 247.72"/>
    <polygon class="a" points="224.954 98.536 260.663 142.164 213 151.977 212.988 107.394 224.954 98.536"/>
    <polygon class="a" points="179.458 151.068 168.659 161.986 155.625 141.321 173.181 147.011 179.458 151.068"/>
    <polygon class="a" points="446.976 556.644 455.197 543.674 472.341 561.082 453.975 559.269 446.976 556.644"/>
    <polygon class="a" points="598.298 384.954 550.015 400.149 544.858 373 589.441 372.988 598.298 384.954"/>
    <polygon class="a" points="167.289 583.801 181.991 535.365 207.314 546.428 182.165 583.24 167.289 583.801"/>
    <polygon class="a" points="474.216 160.95 461.286 201.449 371.578 140.466 442.856 71.214 474.216 160.95"/>
    <polygon class="a" points="344 528.051 344.22 574.316 276.155 607.746 250.346 511.776 344 528.051"/>
    <polygon class="a" points="441.729 541.645 193.259 492.301 502.135 289.86 550.774 461.058 441.729 541.645"/>
  </g>
</svg>
