<svg xmlns="http://www.w3.org/2000/svg" viewBox="0 0 700 700">
  <defs>
    <style>
      .a {
        fill: #f2f2f2;
      }
    </style>
  </defs>
  <title>BG2</title>
  <g>
    <path d="M699,1V699H1V1H699m1-1H0V700H700V0Z"/>
    <polygon class="a" points="414.037 380.033 154.715 523.24 296.633 124.581 457.903 231.664 414.037 380.033"/>
    <polygon class="a" points="531.203 307.544 433.949 361.251 461.773 275.53 547.654 251.901 531.203 307.544"/>
    <polygon class="a" points="231.925 260.157 192.544 364.041 128.912 292.302 205.031 248.436 231.925 260.157"/>
    <polygon class="a" points="214.036 115.899 245.604 154.467 203.469 163.141 203.458 123.729 214.036 115.899"/>
    <polygon class="a" points="143.309 108.413 133.762 118.065 122.239 99.796 137.759 104.826 143.309 108.413"/>
    <polygon class="a" points="518.592 636.683 525.859 625.217 541.015 640.606 524.779 639.004 518.592 636.683"/>
    <polygon class="a" points="634.684 383.567 592 397 587.441 373 626.853 372.99 634.684 383.567"/>
    <polygon class="a" points="167.911 610.302 180.908 567.483 203.295 577.263 181.062 609.806 167.911 610.302"/>
    <polygon class="a" points="477.255 185.219 465.825 221.02 386.52 167.11 449.532 105.89 477.255 185.219"/>
    <polygon class="a" points="344.174 530.076 344.369 570.976 284.198 600.529 261.382 515.689 344.174 530.076"/>
    <polygon class="a" points="450.441 536.773 248.432 499.811 499.552 348.166 539.096 476.407 450.441 536.773"/>
  </g>
</svg>
