<svg xmlns="http://www.w3.org/2000/svg" viewBox="0 0 700 700">
  <defs>
    <style>
      .a {
        fill: #f2f2f2;
      }
    </style>
  </defs>
  <title>BG3</title>
  <g>
    <path d="M699,1V699H1V1H699m1-1H0V700H700V0Z"/>
    <path class="a" d="M279.0854,359.5765l171.1539-90.7822c13.5167-7.17,28.72,6.192,23.3464,20.5176L373.83,555.24a16.6182,16.6182,0,0,1-24.9844,7.85L244.9134,491.5225a16.6183,16.6183,0,0,1-6.43-18.667l32.534-103.578A16.6184,16.6184,0,0,1,279.0854,359.5765Z"/>
    <path class="a" d="M143.4684,442.0193l.27-51.8441c.0952-18.2656,22.5031-26.9821,34.916-13.582l19.22,20.7486a20.1406,20.1406,0,0,1,4.7818,18.4994L192.6218,456.619a20.1407,20.1407,0,0,1-33.9665,9.26L149.2,456.1964A20.141,20.141,0,0,1,143.4684,442.0193Z"/>
    <path class="a" d="M453.3012,420.8312l30.9582-81.6658a30.01,30.01,0,0,1,50.5126-9.276l37.4631,42.2366a30.01,30.01,0,0,1-7.4671,45.9154l-68.4213,39.4292a30.01,30.01,0,0,1-26.9738,1.5093h0A30.01,30.01,0,0,1,453.3012,420.8312Z"/>
    <path class="a" d="M403.6859,609.9639l-8.643-10.5595a4.6889,4.6889,0,0,1,2.6829-7.5624l8.64-1.7788A4.6889,4.6889,0,0,1,412,594.6545l.0032,12.3384a4.6888,4.6888,0,0,1-1.899,3.77h0A4.6888,4.6888,0,0,1,403.6859,609.9639Z"/>
    <path class="a" d="M430.4678,501.3964l2.978-3.0107a13.7521,13.7521,0,0,1,21.4087,2.3342l3.1523,4.9976c6.8623,10.8794-3.6352,24.3846-15.8715,20.4188l-6.13-1.9868a13.7535,13.7535,0,0,1-3.2256-1.5329h0A13.7521,13.7521,0,0,1,430.4678,501.3964Z"/>
    <path class="a" d="M217.6067,154.5079l-3.1667,4.9962a19.21,19.21,0,0,1-29.9118,3.1953l-5.7914-5.88c-12.6075-12.8018-2.3068-34.3608,15.5738-32.5957l8.9581.8843a19.2047,19.2047,0,0,1,4.8587,1.13h0A19.21,19.21,0,0,1,217.6067,154.5079Z"/>
    <path class="a" d="M115.4563,310.5242l26.0456-8.1967a6.9006,6.9006,0,0,1,8.8509,5.2945l1.5557,8.19A6.9007,6.9007,0,0,1,145.1309,324l-27.6013.0072a6.9009,6.9009,0,0,1-5.548-2.7948h0A6.9006,6.9006,0,0,1,115.4563,310.5242Z"/>
    <path class="a" d="M544.181,188.9578,536.25,215.0856a6.9006,6.9006,0,0,1-9.3656,4.3192l-7.6389-3.3371a6.9007,6.9007,0,0,1-2.9354-10.2162l15.57-22.7906a6.9006,6.9006,0,0,1,5.438-3.0031h0A6.9006,6.9006,0,0,1,544.181,188.9578Z"/>
    <path class="a" d="M194.4349,600.7226l-4.278-.5868a22.4318,22.4318,0,0,1-17.3943-31.4588l20.2751-44.8806a22.4318,22.4318,0,0,1,33.6056-8.9286l28.49,20.646A22.4318,22.4318,0,0,1,252.9,573.2666l-44.487,24.8213A22.4322,22.4322,0,0,1,194.4349,600.7226Z"/>
    <path class="a" d="M372.21,111.23l5.7819-15.6985a29.4889,29.4889,0,0,1,24.76-19.153L446.3809,72.05a29.4887,29.4887,0,0,1,32.267,32.14l-4.4156,46.3723a29.4886,29.4886,0,0,1-44.2559,22.652l-44.9948-26.3455A29.4887,29.4887,0,0,1,372.21,111.23Z"/>
    <path class="a" d="M266.5927,180.7087,408.174,206.6145c18.2407,3.3376,22.66,27.467,6.7863,37.0528L231.4157,354.5054a20.1407,20.1407,0,0,1-29.6578-11.3062l-27.5673-89.4a20.1407,20.1407,0,0,1,7.9107-22.5827l69.5306-47.3442A20.1408,20.1408,0,0,1,266.5927,180.7087Z"/>
  </g>
</svg>
