<svg xmlns="http://www.w3.org/2000/svg" viewBox="0 0 700 700">
  <defs>
    <style>
      .a {
        fill: #f2f2f2;
      }
    </style>
  </defs>
  <title>BG3</title>
  <g>
    <path d="M699,1V699H1V1H699m1-1H0V700H700V0Z"/>
    <path class="a" d="M270.5385,360.8819l192.88-102.3062c15.2325-8.0795,32.3661,6.978,26.31,23.1222l-117.1394,312.27a8.2245,8.2245,0,0,1-12.365,3.8852L232.0287,509.5773a18.7277,18.7277,0,0,1-7.2458-21.0366l36.6639-116.7264A18.7279,18.7279,0,0,1,270.5385,360.8819Z"/>
    <path class="a" d="M157,470.79l.3044-58.4252c.1073-20.5843,25.36-30.4073,39.3483-15.3061l21.66,23.3823a22.6977,22.6977,0,0,1,5.3887,20.8478L212.393,487.243a22.6974,22.6974,0,0,1-38.2782,10.435l-10.656-10.9112A22.6974,22.6974,0,0,1,157,470.79Z"/>
    <path class="a" d="M408.7473,420.7708,458.5245,289.462c12.859-33.9211,57.1463-42.054,81.2182-14.9148l60.2362,67.9115a48.2527,48.2527,0,0,1-12.0062,73.8264L477.9594,479.6825a48.2525,48.2525,0,0,1-43.3706,2.4268h0A48.2528,48.2528,0,0,1,408.7473,420.7708Z"/>
    <path class="a" d="M406.6305,570.0537l-9.74-11.9a5.284,5.284,0,0,1,3.0235-8.5223l9.7365-2.0046a5.284,5.284,0,0,1,6.35,5.1741l.0036,13.9046a5.2843,5.2843,0,0,1-2.14,4.2483h0A5.2841,5.2841,0,0,1,406.6305,570.0537Z"/>
    <path class="a" d="M406.6114,523.5456l9.5664-22.8637a12.3944,12.3944,0,0,1,18.68-5.2716l31.3868,22.6168a12.3944,12.3944,0,0,1-6.3761,22.42l-30.9312,2.1762a12.3946,12.3946,0,0,1-3.2129-.1929l-10.022-1.9294A12.3944,12.3944,0,0,1,406.6114,523.5456Z"/>
    <path class="a" d="M241.9214,176.2091l-3.5687,5.63a21.6482,21.6482,0,0,1-33.7089,3.601l-6.5265-6.6271c-14.2078-14.4268-2.6-38.7226,17.5508-36.7334l10.0952.9965a21.6524,21.6524,0,0,1,5.4755,1.274h0A21.6481,21.6481,0,0,1,241.9214,176.2091Z"/>
    <path class="a" d="M123.1382,293.8135l29.3518-9.2371a7.7766,7.7766,0,0,1,9.9745,5.9666l1.7531,9.2291A7.7766,7.7766,0,0,1,156.58,309l-31.105.0081a7.7768,7.7768,0,0,1-6.2523-3.1495h0A7.7766,7.7766,0,0,1,123.1382,293.8135Z"/>
    <path class="a" d="M569.2855,168.6048l-8.9376,29.4444a7.7767,7.7767,0,0,1-10.5546,4.8675l-8.6085-3.7607a7.7766,7.7766,0,0,1-3.308-11.513l17.5461-25.6837a7.7765,7.7765,0,0,1,6.1283-3.3843h0A7.7766,7.7766,0,0,1,569.2855,168.6048Z"/>
    <path class="a" d="M209.6811,623.0046l-4.8209-.6613a25.2794,25.2794,0,0,1-19.6024-35.4523l22.8489-50.5777a25.2792,25.2792,0,0,1,37.8714-10.062l32.1063,23.2668a25.2793,25.2793,0,0,1-2.5169,42.5452l-50.1341,27.9721A25.28,25.28,0,0,1,209.6811,623.0046Z"/>
    <path class="a" d="M370.7384,114.9141l6.5158-17.6913a33.232,33.232,0,0,1,27.9034-21.5843l49.1668-4.8777a33.2319,33.2319,0,0,1,36.363,36.22l-4.9761,52.2589a33.2319,33.2319,0,0,1-49.8737,25.5275l-50.7065-29.69A33.2319,33.2319,0,0,1,370.7384,114.9141Z"/>
    <path class="a" d="M292.7559,166.9642l197.9212,36.2147c25.4994,4.6657,31.6774,38.397,9.4869,51.7973L243.5808,409.9205a28.1554,28.1554,0,0,1-41.46-15.8052L163.5839,269.14a28.1552,28.1552,0,0,1,11.0587-31.5691l97.1991-66.184A28.1558,28.1558,0,0,1,292.7559,166.9642Z"/>
  </g>
</svg>
