<svg xmlns="http://www.w3.org/2000/svg" viewBox="0 0 700 700">
  <defs>
    <style>
      .a {
        fill: #f2f2f2;
      }
    </style>
  </defs>
  <title>BG4</title>
  <g>
    <path d="M699,1V699H1V1H699m1-1H0V700H700V0Z"/>
    <g>
      <rect class="a" x="200.9158" y="191.4754" width="329.6784" height="342.0491" rx="120.8842" transform="translate(-106.855 157.9939) rotate(-21.345)"/>
      <rect class="a" x="202.0382" y="81.2753" width="97.9003" height="97.9003" rx="37.1947" transform="translate(-30.1834 100.2881) rotate(-21.345)"/>
      <rect class="a" x="95.0382" y="413.2753" width="97.9003" height="97.9003" rx="37.1947" transform="translate(-158.3653 84.1153) rotate(-21.345)"/>
      <rect class="a" x="138.6796" y="175.9166" width="54.6176" height="54.6176" rx="15.5145" transform="translate(-62.5847 74.357) rotate(-21.345)"/>
      <rect class="a" x="457.6796" y="539.9166" width="54.6176" height="54.6176" rx="15.5145" transform="translate(-173.1928 215.4358) rotate(-21.345)"/>
      <rect class="a" x="550.6796" y="224.9166" width="54.6176" height="54.6176" rx="15.5145" transform="translate(-52.159 227.679) rotate(-21.345)"/>
    </g>
  </g>
</svg>
