<svg xmlns="http://www.w3.org/2000/svg" viewBox="0 0 700 700">
  <defs>
    <style>
      .a {
        fill: #f2f2f2;
      }
    </style>
  </defs>
  <title>BG6</title>
  <g>
    <g>
      <path class="a" d="M337.596,327.4528C342,353,361,377,386.869,383.6078a54.9845,54.9845,0,0,0,18.9,1.6466A56.1328,56.1328,0,0,0,425,380c32-16,55-55,95.3374-48.2877C526.7778,333.4167,533.3333,337,540,343c16,14,23,37,21,59a136.4639,136.4639,0,0,1-2.8092,21.3419,141.7748,141.7748,0,0,1-5.9767,20.3936,170.8513,170.8513,0,0,1-11.2812,22.7277,174.8873,174.8873,0,0,1-14.3979,20.7219,178.0609,178.0609,0,0,1-81.8035,56.9274c-5.5033,2.3473-11.1769,4.4365-16.937,6.2853-28.8006,9.244-59.4727,12.8059-88.9953,9.2235a93.0758,93.0758,0,0,1-18.2083-6.03c-23.8137-10.5194-46.004-29.8271-69.3436-44.2471-22.1254-13.67-42.0861-13.5755-58.1138-37.5349-10.2764-15.362-13.7447-33.3927-20.2626-50.311-7.3266-19.018-20.4218-31.5137-29.72-48.6074-18.3353-33.7065-2.58-52.3956,11.4542-86.1744,12.48-30.04,16.5963-58.976,39.8087-83.1581,38.4867-40.0946,138.2892-83.7154,185.9787-34.72,16.607,17.0615,20.2475,32.0421,16.6714,45.8133-1.7881,6.8856-5.38,13.4688-10.0559,19.8585-4.7519,5.8726-9.9409,11.59-15.1482,17.3369C358,268,341,285,336.5722,307.4807A45.7627,45.7627,0,0,0,337.596,327.4528Z"/>
      <path class="a" d="M454.41,295.0955c31.6006,66.2348-72.3182,113.6735-103.1395,47.7416C320.1712,276.31,422.6132,228.4494,454.41,295.0955Z"/>
      <path class="a" d="M556.8142,264.8042c22.6475,47.4691-51.829,81.4675-73.918,34.2155C460.6078,251.3413,534.026,217.04,556.8142,264.8042Z"/>
      <path class="a" d="M457.6888,117.7562c13.37,28.0228-30.5965,48.0934-43.6365,20.1987C400.8947,109.8086,444.2361,89.5594,457.6888,117.7562Z"/>
      <path class="a" d="M172.5387,434.31c20.6384,43.2579-47.231,74.24-67.36,31.18C84.8673,422.0411,151.7722,390.7831,172.5387,434.31Z"/>
      <path class="a" d="M572.3042,475.5293c7,14.6715-16.019,25.18-22.8462,10.5752C542.5693,471.3683,565.261,460.7667,572.3042,475.5293Z"/>
      <path class="a" d="M238.3409,135.9969c14.3831,30.1468-32.9157,51.7386-46.944,21.73C177.2419,127.4469,223.8685,105.6629,238.3409,135.9969Z"/>
      <path class="a" d="M457.6888,568.7562c13.37,28.0228-30.5965,48.0934-43.6365,20.1987C400.8947,560.8086,444.2361,540.5594,457.6888,568.7562Z"/>
    </g>
    <path d="M699,1V699H1V1H699m1-1H0V700H700V0Z"/>
  </g>
</svg>
