<svg xmlns="http://www.w3.org/2000/svg" viewBox="0 0 700 700">
  <defs>
    <style>
      .a {
        fill: #f2f2f2;
      }
    </style>
  </defs>
  <title>BG6</title>
  <g>
    <g>
      <path class="a" d="M314.2681,340.4634a139.99,139.99,0,0,0,7.4591,12.5888,137.1469,137.1469,0,0,0,9.8333,13.3,116.0073,116.0073,0,0,0,31.322,27.6532,119.9085,119.9085,0,0,0,17.0361,8.2151,80.6651,80.6651,0,0,0,18.6493,4.8726c9.3534,2.2329,20.6342-.99,28.6918-7.4363,11.4822-10.2735,17.5255-23.72,26.6281-35.24a65.3119,65.3119,0,0,1,10.4373-10.689c16.3168-12.6909,40.3387-14.9571,57.4487-5.099a39.4253,39.4253,0,0,1,14.2646,13.9624c31.4249,46.7345,5.64,103.1383-26.59,143.4267-20.1441,25.7845-48.346,36.26-75.7163,49.0953-5.5035,2.346-11.1771,4.4352-16.9372,6.284-28.8006,9.244-59.4727,12.8059-88.9953,9.2235a93.0758,93.0758,0,0,1-18.2083-6.03c-23.8137-10.5194-46.004-29.8271-69.3436-44.2471-22.1254-13.67-42.0861-13.5755-58.1138-37.5349-10.2764-15.362-13.7447-33.3927-20.2626-50.311-7.3266-19.018-20.4218-31.5137-29.72-48.6074-18.3353-33.7065-2.58-52.3956,11.4542-86.1744,12.48-30.04,16.5963-58.976,39.8087-83.1581,38.4867-40.0946,138.2892-83.7154,185.9787-34.72C435.82,248.0837,294.7859,283.0357,314.2681,340.4634Z"/>
      <path class="a" d="M446.2876,301.91c27.8452,58.3633-63.7237,100.1643-90.8821,42.0679C328.002,285.3569,418.27,243.1838,446.2876,301.91Z"/>
      <path class="a" d="M524.3041,280.1753c16.8141,35.2422-38.4791,60.4835-54.8785,25.4024C452.8782,270.18,507.3856,244.7142,524.3041,280.1753Z"/>
      <path class="a" d="M446.6888,128.7562c13.37,28.0228-30.5965,48.0934-43.6365,20.1987C389.8947,120.8086,433.2361,100.5594,446.6888,128.7562Z"/>
      <path class="a" d="M127.3042,474.5293c7,14.6715-16.019,25.18-22.8462,10.5752C97.5693,470.3683,120.261,459.7667,127.3042,474.5293Z"/>
      <path class="a" d="M581.3042,522.5293c7,14.6715-16.019,25.18-22.8462,10.5752C551.5693,518.3683,574.261,507.7667,581.3042,522.5293Z"/>
      <path class="a" d="M182.3042,109.5293c7,14.6715-16.019,25.18-22.8462,10.5752C152.5693,105.3683,175.261,94.7667,182.3042,109.5293Z"/>
      <path class="a" d="M470.6888,595.7562c13.37,28.0228-30.5965,48.0934-43.6365,20.1987C413.8947,587.8086,457.2361,567.5594,470.6888,595.7562Z"/>
    </g>
    <path d="M699,1V699H1V1H699m1-1H0V700H700V0Z"/>
  </g>
</svg>
