<svg xmlns="http://www.w3.org/2000/svg" viewBox="0 0 700 700">
  <defs>
    <style>
      .a {
        fill: #f2f2f2;
      }
    </style>
  </defs>
  <title>BG7</title>
  <g>
    <path d="M699,1V699H1V1H699m1-1H0V700H700V0Z"/>
    <g>
      <path class="a" d="M163.0921,192.82a174.4576,174.4576,0,0,0-9.7271,33.8359c-1.1134,5.7842-2.0368,11.6242-2.87,17.5033a103.8593,103.8593,0,0,1-2.62,17.8548c-5.8653,34.254-30.11,57.747-41.4722,89.9157-.4478,3.2145-1.8151,5.9732.4878,8.26,12.4422,14.1852,32.6486,17.3277,49.1527,11.7623,4.967-1.5473,10.2791-2.8281,15.73-4.0349s11.0394-2.34,16.56-3.5916a119.1172,119.1172,0,0,0,80.8725-51.9777c23.2848-35.4232,42.8914-72.67,73.1826-102.4325q4.4587-5.2584,8.4441-10.8849a132.8555,132.8555,0,0,0,13.6255-24.2341,47.797,47.797,0,0,0-2.0458-18.9994,111.387,111.387,0,0,0-5.4206-10.9437c-1.9394-3.459-3.94-6.6777-5.7854-9.5017-15.6806-21.5177-43.2356-26.0115-67.5486-27.7447a71.7234,71.7234,0,0,0-18.2394,1.0305c-14.6637,2.7363-27.9849,9.87-39.6412,19.4552-3.8927,3.1915-7.6242,6.6349-11.3974,10.0919-13.67,11.9207-26.48,23.899-39.1921,37.0652A125.1411,125.1411,0,0,0,163.0921,192.82Z"/>
      <path class="a" d="M234.0316,411.19c-5.4053,48.8937-33.9917,89.3912-44.7116,138.2263-3.5733,13.1021,2.3822,36.9241,10.72,33.3508,39.3063-16.6754,82.1859-33.3508,126.2566-29.7775,14.2932,1.1911,26.2043-7.1466,33.3509-19.0576,20.6457-34.939,38.6445-71.9954,67.8788-94.7842a102.3485,102.3485,0,0,1,24.254-14.16c22.2128-5.4011,46.0348-8.9744,51.99-35.1786,17.8665-67.8927,83.377-141.7409,44.0707-206.06-9.5288-15.4843-33.3508-17.8665-53.2389-20.3012a147.7884,147.7884,0,0,0-26.1748-.7379c-43.5155,2.586-86.0156,23.6386-119.9733,54.1092A247.0183,247.0183,0,0,0,326.5977,239.08c-23.2287,30.6075-46.853,62.5145-64.8881,97.0648-4.5088,8.6376-8.6668,17.44-12.38,26.4289a238.1694,238.1694,0,0,0-9.5071,27.515C237.6558,397.4464,235.7361,404.5034,234.0316,411.19Z"/>
      <path class="a" d="M541.2378,402.5874c-3.833,4.9853-8.533,8.3274-10.7889,15.0589-1.0242,3.3454-2.0138,6.6839-3.0065,9.9957-4.9636,16.5591-10.0059,32.45-19.8446,45.181q-2.8158,5.17-5.3058,10.6756c-10.5469,26.402-16.3508,69.6248-1.9213,83.7188,19.6585,18.3872,38.34-36.5568,51.7118-63.37,1.598-3.7,3.7952-5.5829,5.6417-8.6287,1.8914-2.638,3.85-5.1493,5.8491-7.5905,9.9911-12.1952,21.0141-22.6373,29.54-37.3123,2.5263-3.3987,3.5249-8.9157,3.5836-13.7643-.764-13.8773-6.2163-25.3821-5.6139-39.9025a60.6026,60.6026,0,0,0-.2651-10.6656c-.8247-6.7334-3.064-12.6118-7.2824-16.9826-4.9117-4.8392-12.1262.9319-17.62,7.4768-2.1307,2.3234-4.2544,4.8891-6.374,7.4327s-4.2342,5.0627-6.3568,7.3085a40.0555,40.0555,0,0,1-6.4,5.6739Q544.1345,399.5576,541.2378,402.5874Z"/>
      <path class="a" d="M229.64,398.0785c-12.0415,26.3872-14.552,62.76-45.3586,74.0842-13.8343,5.5664-28.4326-1.419-35.5681-15.1578-19.9327-42.881,24.7492-84.9705,63.7827-90.496,9.4139-.573,17.5453,3.6565,20.66,12.7847C233.5346,384.1909,232.3116,390.5084,229.64,398.0785Z"/>
      <path class="a" d="M385.3167,501.167c15.7609-20.8219,25.1075-52.2892,54.4-56.1913,13.2488-2.1752,24.7046,6.8287,28.2772,20.3015,9.0961,41.5918-38.428,69.803-73.8106,66.995-8.3843-1.3446-14.6989-6.6573-15.6435-15.29C379.1685,512.6052,381.4834,507.2943,385.3167,501.167Z"/>
      <path class="a" d="M481.2144,87.4459c-3.6481,22.454-23.8968,51.04-48.91,31.9828-9.5288-7.1466-13.1021-22.6309-8.3377-35.733,5.9555-15.4843,20.2487-28.5864,38.1152-26.2042,10.72,1.1911,19.0576,9.5288,20.6994,18.7135A26.6726,26.6726,0,0,1,481.2144,87.4459Z"/>
      <path class="a" d="M377.6171,572.9588c6.2566-10.4768,8.99-25.5706,22.3963-28.88,6.0427-1.6874,11.8239,1.9093,14.1718,7.9847,6.3505,18.8539-14.282,34.3862-30.86,34.89-3.9631-.1961-7.1676-2.3411-8.0476-6.3024A20.3259,20.3259,0,0,1,377.6171,572.9588Z"/>
      <path class="a" d="M559.3921,288.049c7.2651-14.7351,9.3035-35.2854,26.9371-41.1739,7.9268-2.9167,16.0733,1.2858,19.88,9.1852,10.5576,24.6156-15.4536,47.6869-37.6465,50.153-5.3395.1647-9.8714-2.3678-11.48-7.5887C556.9518,295.8455,557.7514,292.29,559.3921,288.049Z"/>
      <path class="a" d="M129.8683,611.0741c6.2566-10.4769,8.99-25.5707,22.3962-28.88,6.0427-1.6874,11.8239,1.9093,14.1718,7.9847,6.3506,18.8539-14.282,34.3862-30.86,34.89-3.9631-.1961-7.1676-2.3411-8.0475-6.3024A20.3249,20.3249,0,0,1,129.8683,611.0741Z"/>
      <path class="a" d="M280.6591,614.6246c12.4216-9.37,31.1795-14.9073,33.5336-32.356,1.3092-7.8916-4.0441-14.7261-12.0678-16.8681-24.7718-5.4609-41.6276,22.8264-39.99,43.9105.7928,4.9968,3.9519,8.7644,9.0941,9.3358C273.838,618.2764,277.0046,616.9024,280.6591,614.6246Z"/>
      <path class="a" d="M497.55,141.3259c8.3187-6.2749,20.8808-9.9833,22.4573-21.6687.8768-5.285-2.7082-9.862-8.0817-11.2965-16.59-3.6572-27.8779,15.2867-26.7811,29.4068.531,3.3463,2.6466,5.8694,6.09,6.2521A17.355,17.355,0,0,0,497.55,141.3259Z"/>
      <path class="a" d="M545.2417,361.4886c6.2808-4.7377,15.7656-7.5377,16.9559-16.3605.6619-3.99-2.0448-7.4461-6.102-8.5291-12.5256-2.7613-21.0485,11.5419-20.22,22.2029a5.2029,5.2029,0,0,0,4.5984,4.7205A13.1039,13.1039,0,0,0,545.2417,361.4886Z"/>
    </g>
  </g>
</svg>
