<svg xmlns="http://www.w3.org/2000/svg" viewBox="0 0 700 700">
  <defs>
    <style>
      .a {
        fill: #f2f2f2;
      }
    </style>
  </defs>
  <title>BG7</title>
  <g>
    <path d="M699,1V699H1V1H699m1-1H0V700H700V0Z"/>
    <g>
      <path class="a" d="M170.7094,203.0267a146.4688,146.4688,0,0,0-6.1862,28.9032c-.5973,4.9091-1.0322,9.854-1.3894,14.8263a87.2013,87.2013,0,0,1-1.16,15.1063c-2.9274,29.03-21.8719,50.1114-29.5244,77.713-.1887,2.7183-1.1741,5.1081.8873,6.89,11.2431,11.16,28.3493,12.6208,41.85,7.0029,4.07-1.5838,8.4454-2.9643,12.9406-4.291s9.1106-2.6,13.6617-3.9679a100.0058,100.0058,0,0,0,64.7231-48.2211c17.45-31.0185,31.7125-63.3508,55.3583-90.0344q3.43-4.6626,6.4416-9.606A111.54,111.54,0,0,0,338.32,176.2609a40.1286,40.1286,0,0,0-2.8145-15.7945,93.5343,93.5343,0,0,0-5.1743-8.8518c-1.8248-2.7847-3.6866-5.3646-5.3963-7.6229-14.38-17.1136-37.72-19.2805-58.1837-19.3231a60.2243,60.2243,0,0,0-15.2169,1.92c-12.123,3.1416-22.8669,9.8883-32.0742,18.5922-3.0754,2.8987-6.0012,5.999-8.9611,9.1131-10.7585,10.7765-20.7933,21.5514-30.6776,33.3156A105.06,105.06,0,0,0,170.7094,203.0267Z"/>
      <path class="a" d="M249.5741,407.3663q-2.2679,7.3228-4.9543,14.2819c-12.0841,41.93-62.0783,87.7692-42.1294,118.7554,4.2132,6.6576,9.9733,5.7816,16.597,1.4105,23.99-24.4387,42.6345-37.6644,67.6038-18.6118,27.6086,21.7911,61.1335-39.4232,78.7191-79.3367a70.9646,70.9646,0,0,1,8.2547-10.055,61.0912,61.0912,0,0,1,49.1638-17.92,35.2088,35.2088,0,0,0,14.082-8.2614,68.2107,68.2107,0,0,0,11.5127-14.4533,116.0849,116.0849,0,0,0,8.8886-16.7681c13.103-29.9237,18.71-68.5066,32.7275-97.3612,2.9448-7.0312,6.126-13.9245,9.7071-20.61a157.7839,157.7839,0,0,0,6.3438-17.9408c4.7033-16.6186,3.8294-30.3828-8.4452-36.691-41.8921-21.1838-99.7375-22.921-145.748,24.8832-4.0566,4.1876-8.0254,8.6819-11.9417,13.3864-19.5314,23.4856-37.75,52.2277-57.5162,73.0111a110.7575,110.7575,0,0,0-6.8881,12.95C269.4265,341.5368,265.397,356.543,261.77,371.67c-2.185,6.51-4.2986,12.7721-6.3333,18.7373S251.4457,402.0411,249.5741,407.3663Z"/>
      <path class="a" d="M493.4561,390.7287c-3.218,4.1855-7.164,6.9914-9.058,12.6429-.86,2.8086-1.6907,5.6115-2.5241,8.392-4.1673,13.9023-8.4005,27.2436-16.6608,37.9321q-2.364,4.34-4.4545,8.9628c-8.8547,22.1661-13.7274,58.4542-1.613,70.287,16.5045,15.4371,32.1891-30.6917,43.4151-53.2027,1.3416-3.1064,3.1863-4.6872,4.7366-7.2443,1.5879-2.2147,3.2319-4.3231,4.9106-6.3727,8.3882-10.2386,17.6426-19.0053,24.8008-31.3259,2.1209-2.8534,2.9593-7.4853,3.0086-11.556-.6414-11.6508-5.219-21.31-4.7132-33.5a50.8775,50.8775,0,0,0-.2226-8.9544c-.6924-5.6531-2.5724-10.5883-6.114-14.2579-4.1236-4.0628-10.1807.7824-14.7934,6.2772-1.7888,1.9506-3.5718,4.1047-5.3513,6.24s-3.5549,4.25-5.337,6.1359a33.6288,33.6288,0,0,1-5.3732,4.7636Q495.8881,388.1851,493.4561,390.7287Z"/>
      <path class="a" d="M201.6663,467.71C193,484,190,507,170,513c-9,3-18-2-22-11-11-28,19-53,44-55,6,0,11,3,12.625,8.9169C204.6759,459.0413,203.6551,463.0057,201.6663,467.71Z"/>
      <path class="a" d="M373.6212,476.1627c8.6663-16.29,11.6663-39.29,31.6663-45.29,9-3,18,2,22,11,11,28-19,53-44,55-6,0-11-3-12.625-8.9169C370.6116,484.8309,371.6324,480.8665,373.6212,476.1627Z"/>
      <path class="a" d="M443.0628,134.1485C440,153,423,177,402,161c-8-6-11-19-7-30,5-13,17-24,32-22,9,1,16,8,17.3784,15.7111A22.3918,22.3918,0,0,1,443.0628,134.1485Z"/>
      <path class="a" d="M356.0867,533.7657c5.2528-8.7959,7.5475-21.4681,18.803-24.2465,5.0732-1.4167,9.9269,1.603,11.8981,6.7036,5.3316,15.829-11.9906,28.8694-25.909,29.2924-3.3273-.1646-6.0177-1.9654-6.7564-5.2912A17.0638,17.0638,0,0,1,356.0867,533.7657Z"/>
      <path class="a" d="M519.0867,260.7657c5.2528-8.7959,7.5475-21.4681,18.803-24.2465,5.0732-1.4167,9.9269,1.603,11.8981,6.7036,5.3316,15.829-11.9906,28.8694-25.909,29.2924-3.3273-.1646-6.0177-1.9654-6.7564-5.2912A17.0638,17.0638,0,0,1,519.0867,260.7657Z"/>
      <path class="a" d="M148.0867,565.7657c5.2528-8.7959,7.5475-21.4681,18.803-24.2465,5.0732-1.4167,9.9269,1.603,11.8981,6.7036,5.3316,15.829-11.9906,28.8694-25.909,29.2924-3.3273-.1646-6.0177-1.9654-6.7564-5.2912A17.0638,17.0638,0,0,1,148.0867,565.7657Z"/>
      <path class="a" d="M245.073,604.4078c3.2072-2.4192,8.05-3.849,8.6582-8.3542a3.913,3.913,0,0,0-3.1158-4.3552c-6.396-1.41-10.7481,5.8936-10.3252,11.3374a2.6567,2.6567,0,0,0,2.348,2.41A6.6909,6.6909,0,0,0,245.073,604.4078Z"/>
      <path class="a" d="M525.073,114.4078c3.2072-2.4192,8.05-3.849,8.6582-8.3542a3.913,3.913,0,0,0-3.1158-4.3552c-6.396-1.41-10.7481,5.8936-10.3252,11.3374a2.6567,2.6567,0,0,0,2.348,2.41A6.6909,6.6909,0,0,0,525.073,114.4078Z"/>
      <path class="a" d="M539.073,306.4078c3.2072-2.4192,8.05-3.849,8.6582-8.3542a3.913,3.913,0,0,0-3.1158-4.3552c-6.396-1.41-10.7481,5.8936-10.3252,11.3374a2.6567,2.6567,0,0,0,2.348,2.4105A6.6909,6.6909,0,0,0,539.073,306.4078Z"/>
    </g>
  </g>
</svg>
