<svg xmlns="http://www.w3.org/2000/svg" viewBox="0 0 700 700">
  <defs>
    <style>
      .a {
        fill: #f2f2f2;
      }
    </style>
  </defs>
  <title>C1</title>
  <g>
    <path d="M699,1V699H1V1H699m1-1H0V700H700V0Z"/>
    <path class="a" d="M174.2585,239.887c-1.8654,11.1779-10.6519,25.3714-23.98,20.2152-16.972-6.5657-16.3051-31.5766-14.323-48.66,4.681-40.3457,38.1148-76.6646,80.1626-77.4969,21.6453-.4285,54.278,6.275,65.1315,26.6848,12.6266,23.7442-2.1046,34.1465-26.1,34.6035-16.3628.3117-33.112-1.1385-48.9245,4.2127C185.7836,206.3638,176.1239,228.7091,174.2585,239.887Z"/>
    <path class="a" d="M223.4672,301.6584c-7.639-1.2268-15.8447-2.64-22.7889-6.9628-11.5849-6.8117-15.7864-24.6028-3.2076-31.8991,19.7763-11.8018,52.5-23.232,67.16-.4285,10.7261,16.2114-8.6476,34.5039-25.475,37.7959A51.2188,51.2188,0,0,1,223.4672,301.6584Z"/>
    <path class="a" d="M307.0581,223.4047c1.8631,9.4114-4.22,22.2531-15.034,19.55-8.7864-2.0276-15.5453-11.49-14.1935-20.9523,1.3518-6.083,6.0829-10.8141,12.1659-11.49s10.8141,2.7035,14.5374,7.0345A15.1185,15.1185,0,0,1,307.0581,223.4047Z"/>
  </g>
</svg>
