<svg xmlns="http://www.w3.org/2000/svg" viewBox="0 0 700 700">
  <defs>
    <style>
      .a {
        fill: #f2f2f2;
      }
    </style>
  </defs>
  <title>C1</title>
  <g>
    <path d="M699,1V699H1V1H699m1-1H0V700H700V0Z"/>
    <path class="a" d="M162.76,278.4618C160,295,147,316,127.28,308.3712c-25.1108-9.7143-24.1242-46.7192-21.1916-71.9949,6.9257-59.6934,56.3927-113.429,118.6045-114.66,32.0252-.634,80.307,9.2842,96.3653,39.4816,18.6817,35.1306-3.1138,50.5214-38.6165,51.1975-24.21.4611-48.9909-1.6845-72.3863,6.2328C179.812,228.8626,165.52,261.9236,162.76,278.4618Z"/>
    <path class="a" d="M235.5666,369.8557c-11.3023-1.8152-23.443-3.9066-33.7172-10.3018-17.1405-10.0783-23.3568-36.4012-4.7459-47.1963,29.26-17.4614,77.677-34.373,99.3673-.6341,15.87,23.9855-12.7945,51.05-37.6915,55.9209A75.7851,75.7851,0,0,1,235.5666,369.8557Z"/>
    <path class="a" d="M359.2435,254.0755C362,268,353,287,337,283c-13-3-23-17-21-31,2-9,9-16,18-17s16,4,21.5088,10.4079A22.3691,22.3691,0,0,1,359.2435,254.0755Z"/>
  </g>
</svg>
