<svg xmlns="http://www.w3.org/2000/svg" viewBox="0 0 700 700">
  <defs>
    <style>
      .a {
        fill: #f2f2f2;
      }
    </style>
  </defs>
  <title>C2</title>
  <g>
    <path d="M699,1V699H1V1H699m1-1H0V700H700V0Z"/>
    <path class="a" d="M222.7085,285.5459a21.0105,21.0105,0,0,1-11.7778,4.52,32.1269,32.1269,0,0,1-12.9669-1.9271,44.6225,44.6225,0,0,1-11.7825-6.57,50.2093,50.2093,0,0,1-9.5277-9.6209c-18.4816-25.59-16.3492-57.5773-2.8434-83.8781a59.6856,59.6856,0,0,1,23.51-24.1419,66.14,66.14,0,0,1,15.592-6.411c9-2.8519,18.318-2.8547,27.3214-1.276a92.2128,92.2128,0,0,1,13.19,3.3957c21.3249,8.53,41.2282,34.8307,31.9874,56.1556-8.53,20.6141-30.5657,31.2766-43.9251,49.052q-3.1844,3.9219-6.3439,7.9007-3.1606,3.9811-6.303,8.0336A48.4053,48.4053,0,0,1,222.7085,285.5459Z"/>
    <path class="a" d="M277.9993,249.0329a8.2037,8.2037,0,0,1,4.5809-1.8117,12.5473,12.5473,0,0,1,5.071.7009,17.426,17.426,0,0,1,4.6268,2.5187,19.6031,19.6031,0,0,1,3.7586,3.7189c7.3183,9.9188,6.6127,22.4176,1.4435,32.741a23.3075,23.3075,0,0,1-9.0842,9.52,25.83,25.83,0,0,1-6.0628,2.5652,22.3235,22.3235,0,0,1-10.6633.6068,36.0059,36.0059,0,0,1-5.1637-1.2735c-8.3608-3.246-16.237-13.4368-12.7134-21.8,3.2488-8.0832,11.8109-12.3342,16.9568-19.3282q1.2277-1.5439,2.4457-3.11t2.4293-3.162A18.8989,18.8989,0,0,1,277.9993,249.0329Z"/>
  </g>
</svg>
