<svg xmlns="http://www.w3.org/2000/svg" viewBox="0 0 700 700">
  <defs>
    <style>
      .a {
        fill: #f2f2f2;
      }
    </style>
  </defs>
  <title>C2</title>
  <g>
    <path d="M699,1V699H1V1H699m1-1H0V700H700V0Z"/>
    <path class="a" d="M207.79,309.13a29.5568,29.5568,0,0,1-16.569,6.3584,45.1952,45.1952,0,0,1-18.2418-2.7109,62.7742,62.7742,0,0,1-16.5757-9.2428A70.6316,70.6316,0,0,1,143,290c-26-36-23-81-4-118a83.9659,83.9659,0,0,1,33.0741-33.963,93.0483,93.0483,0,0,1,21.9349-9.019c12.6607-4.012,25.77-4.016,38.4358-1.7951A129.7336,129.7336,0,0,1,251,132c30,12,58,49,45,79-12,29-43,44-61.794,69.0066q-4.48,5.5173-8.9246,11.1147-4.4464,5.6007-8.8672,11.3017A68.0768,68.0768,0,0,1,207.79,309.13Z"/>
  </g>
</svg>
