<svg xmlns="http://www.w3.org/2000/svg" viewBox="0 0 700 700">
  <defs>
    <style>
      .a {
        fill: #f2f2f2;
      }
    </style>
  </defs>
  <title>C5</title>
  <g>
    <path d="M699,1V699H1V1H699m1-1H0V700H700V0Z"/>
    <path class="a" d="M229.0479,294.657l-82.8046-31.8416-19.9-44.7675,31.8416-82.8046,44.7675-19.9,82.8046,31.8416,19.9,44.7675-31.8416,82.8046Z"/>
    <path class="a" d="M125.8547,92.44l-13.7133,19.2187A6.5711,6.5711,0,0,0,116.86,122.016l23.5005,2.2667a6.5711,6.5711,0,0,0,6.6108-9.2647l-9.7873-21.4854A6.5711,6.5711,0,0,0,125.8547,92.44Z"/>
    <path class="a" d="M350.98,191.09,321.885,205.8467a10.1026,10.1026,0,0,0-.9481,17.4724l27.3273,17.8184a10.1025,10.1025,0,0,0,15.6056-7.9151l1.7676-32.5754A10.1025,10.1025,0,0,0,350.98,191.09Z"/>
    <path class="a" d="M107.525,343.1591l55.2839-9.6158a10.1025,10.1025,0,0,0,6.0228-16.4289l-35.97-43.0693a10.1025,10.1025,0,0,0-17.2392,2.9985L96.3086,329.7287A10.1025,10.1025,0,0,0,107.525,343.1591Z"/>
  </g>
</svg>
