<svg xmlns="http://www.w3.org/2000/svg" viewBox="0 0 700 700">
  <defs>
    <style>
      .a {
        fill: #f2f2f2;
      }
    </style>
  </defs>
  <title>C5</title>
  <g>
    <path d="M699,1V699H1V1H699m1-1H0V700H700V0Z"/>
    <path class="a" d="M231.4236,272.7336,168.809,248.6559l-12.9578-29.15,24.0777-62.6145,29.15-12.9579,62.6146,24.0777,12.9578,29.15-24.0777,62.6146Z"/>
    <path class="a" d="M154.3213,131.0887l-5.9053,8.2761a6.5711,6.5711,0,0,0,4.7181,10.3574l10.12.9761a6.571,6.571,0,0,0,6.6107-9.2647l-4.2146-9.2522A6.5711,6.5711,0,0,0,154.3213,131.0887Z"/>
    <path class="a" d="M311.5786,200.75l-11.6131,5.89a10.1025,10.1025,0,0,0-.948,17.4724l10.9075,7.1121a10.1025,10.1025,0,0,0,15.6056-7.9152l.7055-13.0022A10.1025,10.1025,0,0,0,311.5786,200.75Z"/>
    <path class="a" d="M148.2189,305.5732l29.2631-5.09a10.1025,10.1025,0,0,0,6.0228-16.4289l-19.0395-22.7976a10.1025,10.1025,0,0,0-17.2392,2.9985l-10.2236,27.8875A10.1025,10.1025,0,0,0,148.2189,305.5732Z"/>
  </g>
</svg>
