<svg xmlns="http://www.w3.org/2000/svg" viewBox="0 0 700 700">
  <defs>
    <style>
      .a {
        fill: #f2f2f2;
      }
    </style>
  </defs>
  <title>D1</title>
  <g>
    <path d="M699,1V699H1V1H699m1-1H0V700H700V0Z"/>
    <path class="a" d="M37.0533,335.795a7.1538,7.1538,0,0,1,1.6854-13.073l108.689-30.2288a7.1539,7.1539,0,0,1,3.8335,13.7847L42.5722,336.5066A7.1319,7.1319,0,0,1,37.0533,335.795Z"/>
    <path class="a" d="M271.632,164.33a3.3258,3.3258,0,0,1-5.9718,1.374L234.9479,123.191a3.3258,3.3258,0,0,1,5.3918-3.8951l30.7123,42.5129A3.315,3.315,0,0,1,271.632,164.33Z"/>
    <path class="a" d="M610.5591,565.7763a4.5062,4.5062,0,0,1-7.0519-4.3829l11.0834-70.1928a4.5063,4.5063,0,0,1,8.9023,1.4058L612.41,562.7993A4.4926,4.4926,0,0,1,610.5591,565.7763Z"/>
  </g>
</svg>
