<svg xmlns="http://www.w3.org/2000/svg" viewBox="0 0 700 700">
  <defs>
    <style>
      .a {
        fill: #f2f2f2;
      }
    </style>
  </defs>
  <title>D1</title>
  <g>
    <path d="M699,1V699H1V1H699m1-1H0V700H700V0Z"/>
    <path class="a" d="M123.1191,528.2962C99,539,87,566,85,591c-1,18,6,37,23,46,16,8,34,6,49-5,18-14,26-35,24-57s-15-46-39.3908-49.2393A36.1579,36.1579,0,0,0,123.1191,528.2962Zm29.3167,74.0194c-3.4058,1.6276-7.931.8734-11.702-.635-14.33-9.05-12.0672-29.4139-2.2626-40.7269,4.5252-4.5252,11.313-7.542,18.1008-4.5252,12.0673,6.7878,13.5757,23.38,8.0566,34.7618C161.9165,596.5334,157.5882,600.6477,152.4358,602.3156Z"/>
    <path class="a" d="M104.9881,344.5522C96,344,89,350,86,356c-13,23,7,48,28,57,12,4,26-1,31-13,7-18-3-36-16.3087-47.6176C121.6775,346.94,113.29,343.9415,104.9881,344.5522Zm20.1422,39.349c-6.4693.3633-13.7505-5.4781-15.996-12.7491s1.28-13.3243,7.6211-13.7772,13.2109,4.964,15.5875,12.3319S131.6,383.538,125.13,383.9012Z"/>
    <path class="a" d="M623.9506,481.3751c-13.3029-1.37-24.02,12.4734-20.8945,25.4239,3.5725,16.0764,21.8818,25.9009,36.1719,16.97,5.3588-3.1259,8.0382-9.3779,8.0382-16.0764,0-9.8245-6.2519-18.7558-14.7681-23.7968A21.3316,21.3316,0,0,0,623.9506,481.3751Zm-3.0437,37.1208a7.98,7.98,0,0,1-6.98-9.4421c1.316-5.0008,7.6329-5.5272,11.0545-2.1056,2.632,2.632,3.4216,7.6329.6533,10.1465A6.13,6.13,0,0,1,620.9069,518.4959Z"/>
  </g>
</svg>
