<svg xmlns="http://www.w3.org/2000/svg" viewBox="0 0 700 700">
  <defs>
    <style>
      .a {
        fill: #f2f2f2;
      }
    </style>
  </defs>
  <title>D2</title>
  <g>
    <path d="M699,1V699H1V1H699m1-1H0V700H700V0Z"/>
    <path class="a" d="M572.84,417.0889C544,419,530,453,533,479c3,20,19,35,38,37,20,3,39-8,48-26,12-26-1-60-28.2643-70.5851A39.8336,39.8336,0,0,0,572.84,417.0889ZM580.6367,494.2C572,495,563,491,559,483c-8-15-1-37,17-40,13-2,22,9,26,20a25.9708,25.9708,0,0,1-21.3633,31.2Z"/>
    <path class="a" d="M114.808,212.3734C80,214,56,250,61,284c3,18,16,34,34,36,39,4,73-35,64-73-4-14-12-26-25.672-31.0525A43.3283,43.3283,0,0,0,114.808,212.3734Zm-9.9967,78.7c-8.9567.8-15.81-6.815-16.5716-15.1914-.7614-10.6608,5.33-21.3216,14.4683-26.652,6.0918-3.0459,13.7067-3.0459,19.0371,1.523,9.8993,9.1378,7.6148,24.3675-2.0484,33.0512C115.5677,287.9874,110.2687,290.75,104.8113,291.0731Z"/>
    <path class="a" d="M163.25,202.7175A12.4675,12.4675,0,1,1,175.7175,190.25,12.4675,12.4675,0,0,1,163.25,202.7175Z"/>
    <path class="a" d="M617.7445,184.9556a14.6619,14.6619,0,0,1-12.6765-14.5937,11.6865,11.6865,0,0,1,13.02-11.83c7.09.7487,12.7624,7.2836,12.6733,14.6S624.8444,185.7376,617.7445,184.9556Z"/>
    <path class="a" d="M128.25,606.7175A12.4675,12.4675,0,1,1,140.7175,594.25,12.4675,12.4675,0,0,1,128.25,606.7175Z"/>
    <path class="a" d="M516.6048,430.4929C502,430,492,414,492,400c1-9,5-17,14-20,11-3,22,2,27,13,4,10,5,21-1.9834,30.1815A16.329,16.329,0,0,1,516.6048,430.4929Z"/>
    <path class="a" d="M468.8888,550.653C457,550,447,545,440,534c-6-10-6-23,2-32a36.4447,36.4447,0,0,1,15.3923-9.1746C472,488,488,494,499,505c11,12,9,32-4.8828,39.08A40.8515,40.8515,0,0,1,468.8888,550.653Z"/>
  </g>
</svg>
