<svg xmlns="http://www.w3.org/2000/svg" viewBox="0 0 700 700">
  <defs>
    <style>
      .a {
        fill: #f2f2f2;
      }
    </style>
  </defs>
  <title>D4</title>
  <g>
    <path d="M699,1V699H1V1H699m1-1H0V700H700V0Z"/>
    <path class="a" d="M118.881,622.01l39.0469-24.4487a18.24,18.24,0,0,0,5.78-25.14l-24.4488-39.047a18.24,18.24,0,0,0-25.14-5.78L75.0721,552.0428a18.24,18.24,0,0,0-5.78,25.14L93.741,616.23A18.24,18.24,0,0,0,118.881,622.01Zm11.3585-62.9866,6.4555,10.31a13.9367,13.9367,0,0,1-4.4161,19.2084l-10.31,6.4555a13.9366,13.9366,0,0,1-19.2083-4.4162l-6.4555-10.31a13.9367,13.9367,0,0,1,4.4161-19.2084l10.31-6.4555A13.9365,13.9365,0,0,1,130.2395,559.023Z"/>
    <path class="a" d="M406.8072,158.4322l20.7973-21.9948a11.985,11.985,0,0,0-.4742-16.9428L405.1355,98.6974a11.985,11.985,0,0,0-16.9427.4741l-20.7973,21.9948a11.985,11.985,0,0,0,.4742,16.9428l21.9948,20.7972A11.985,11.985,0,0,0,406.8072,158.4322Zm-3.1738-41.9336,5.8075,5.4914a9.1572,9.1572,0,0,1,.3623,12.9452l-5.4913,5.8076a9.1574,9.1574,0,0,1-12.9453.3622l-5.8075-5.4913a9.1572,9.1572,0,0,1-.3623-12.9452l5.4913-5.8076A9.1575,9.1575,0,0,1,403.6334,116.4986Z"/>
    <path class="a" d="M591.1332,539.0472l-18.8544-10.2753a8.5016,8.5016,0,0,0-11.5334,3.3967L550.47,551.023a8.5017,8.5017,0,0,0,3.3968,11.5335l18.8544,10.2753a8.5017,8.5017,0,0,0,11.5334-3.3967L594.53,550.5806A8.5017,8.5017,0,0,0,591.1332,539.0472Zm-28.1827,9.7788,2.7131-4.9784a6.4959,6.4959,0,0,1,8.8122-2.5953l4.9784,2.7132a6.4958,6.4958,0,0,1,2.5953,8.8122l-2.7131,4.9783a6.4957,6.4957,0,0,1-8.8122,2.5953l-4.9784-2.7131A6.4958,6.4958,0,0,1,562.9505,548.826Z"/>
    <path class="a" d="M528.4044,274.5624l51.0226,31.9045a23.8257,23.8257,0,0,0,32.8335-7.57l31.9046-51.0225a23.8259,23.8259,0,0,0-7.57-32.8336L585.573,183.1368a23.8258,23.8258,0,0,0-32.8335,7.5694l-31.9046,51.0226A23.8259,23.8259,0,0,0,528.4044,274.5624Zm80.4788-22.633-8.4241,13.4722a18.2044,18.2044,0,0,1-25.0867,5.7835L561.9,262.7609a18.2043,18.2043,0,0,1-5.7835-25.0867l8.4241-13.4721a18.2044,18.2044,0,0,1,25.0867-5.7835L603.1,226.8428A18.2042,18.2042,0,0,1,608.8832,251.9294Z"/>
  </g>
</svg>
