<svg xmlns="http://www.w3.org/2000/svg" viewBox="0 0 700 700">
  <defs>
    <style>
      .a {
        fill: #f2f2f2;
      }
    </style>
  </defs>
  <title>D5</title>
  <g>
    <path d="M699,1V699H1V1H699m1-1H0V700H700V0Z"/>
    <path class="a" d="M108.0345,298.8322l21.7977,51.1333,51.1333-21.7977-21.7977-51.1333Zm52.1221,20.9655-21.9543,9.3589-9.3589-21.9543,21.9543-9.3589Z"/>
    <path class="a" d="M71.1482,435.2692l31.121,3.5826,3.5826-31.121-31.121-3.5826ZM95.95,415.5882,94.4118,428.95,81.05,427.4118,82.5882,414.05Z"/>
    <path class="a" d="M603.7915,205.4034l-35.3881,42.8051,42.8051,35.3881,35.3881-42.8051Zm5.3008,55.8828-18.3785-15.1939,15.1939-18.3785,18.3785,15.1939Z"/>
    <path class="a" d="M565.57,106.0367,580.0367,131.43,605.43,116.9633,590.9633,91.57Zm28.4869,7.809-10.9027,6.2113-6.2113-10.9027,10.9027-6.2113Z"/>
  </g>
</svg>
