<svg xmlns="http://www.w3.org/2000/svg" viewBox="0 0 700 700">
  <defs>
    <style>
      .a {
        fill: #f2f2f2;
      }
    </style>
  </defs>
  <title>D5</title>
  <g>
    <path d="M699,1V699H1V1H699m1-1H0V700H700V0Z"/>
    <path class="a" d="M124.25,552a47.25,47.25,0,1,0,47.25,47.25A47.25,47.25,0,0,0,124.25,552Zm0,71.5717A24.3217,24.3217,0,1,1,148.5717,599.25,24.3217,24.3217,0,0,1,124.25,623.5717Z"/>
    <path class="a" d="M212.25,165.1149A29.1351,29.1351,0,1,0,241.3851,194.25,29.1351,29.1351,0,0,0,212.25,165.1149Zm0,44.1323A14.9972,14.9972,0,1,1,227.2472,194.25,14.9972,14.9972,0,0,1,212.25,209.2472Z"/>
    <path class="a" d="M605.25,232a47.25,47.25,0,1,0,47.25,47.25A47.25,47.25,0,0,0,605.25,232Zm0,71.5717A24.3217,24.3217,0,1,1,629.5717,279.25,24.3217,24.3217,0,0,1,605.25,303.5717Z"/>
  </g>
</svg>
