<svg xmlns="http://www.w3.org/2000/svg" viewBox="0 0 700 700">
  <defs>
    <style>
      .a {
        fill: #f2f2f2;
      }
    </style>
  </defs>
  <title>D6</title>
  <g>
    <path d="M699,1V699H1V1H699m1-1H0V700H700V0Z"/>
    <path class="a" d="M146.3566,546.99,91.9349,612.7832a2.1208,2.1208,0,0,0,1.348,3.4531l84.6029,11.5245a2.1208,2.1208,0,0,0,2.2618-2.8726l-30.1812-77.3177A2.1208,2.1208,0,0,0,146.3566,546.99Zm-2.3243,36.1629,7.6443,19.5831a2.1207,2.1207,0,0,1-2.2037,2.88l-22.6335-2.4484a2.1207,2.1207,0,0,1-1.3681-3.5048l14.9892-17.1347A2.1208,2.1208,0,0,1,144.0323,583.1529Z"/>
    <path class="a" d="M636.8006,310.4663l-24.9977-21.897a2.1208,2.1208,0,0,0-3.49,1.25l-5.415,32.7879a2.1209,2.1209,0,0,0,2.8075,2.3422l30.4127-10.8908A2.1209,2.1209,0,0,0,636.8006,310.4663Zm-16.13.5317-4.9714,1.78a2.1208,2.1208,0,0,1-2.8162-2.2843l.7756-5.6657a2.1208,2.1208,0,0,1,3.5421-1.2685l4.1959,3.8855A2.1208,2.1208,0,0,1,620.67,310.998Z"/>
    <path class="a" d="M334.3245,570.9034l-7.1828,14.0023a2.1208,2.1208,0,0,0,2.06,3.0817l15.6846-1.2847a2.1208,2.1208,0,0,0,1.59-3.2924l-8.5018-12.7176A2.1208,2.1208,0,0,0,334.3245,570.9034Zm4.07,8.709h0a2.1208,2.1208,0,0,1-1.5317,3.2868h0a2.1208,2.1208,0,0,1-2.091-3.1279h0A2.1209,2.1209,0,0,1,338.3948,579.6124Z"/>
    <path class="a" d="M671.6716,439.4164l-82.18,23.1719a2.1208,2.1208,0,0,0-.8549,3.6069l63.0382,57.59a2.1208,2.1208,0,0,0,3.4941-1.0767l19.1417-80.7621A2.1209,2.1209,0,0,0,671.6716,439.4164Zm-23.533,27.39-5.2,21.9409a2.1208,2.1208,0,0,1-3.45,1.1156L621.0118,473.897a2.1208,2.1208,0,0,1,.8677-3.661l23.6765-5.9751A2.1209,2.1209,0,0,1,648.1386,466.8064Z"/>
    <path class="a" d="M69.22,310.4373l3.1056,46.1175a2.1207,2.1207,0,0,0,3.3533,1.58l37.54-26.967a2.1208,2.1208,0,0,0-.3334-3.641L72.24,308.3763A2.1208,2.1208,0,0,0,69.22,310.4373Zm13.92,15.6835,9.1221,4.2979a2.1208,2.1208,0,0,1,.38,3.6061l-8.69,6.6137a2.1208,2.1208,0,0,1-3.4036-1.6036l-.4324-10.9116A2.1207,2.1207,0,0,1,83.1405,326.1208Z"/>
  </g>
</svg>
