<svg xmlns="http://www.w3.org/2000/svg" viewBox="0 0 700 700">
  <defs>
    <style>
      .a {
        fill: #f2f2f2;
      }
    </style>
  </defs>
  <title>D6</title>
  <g>
    <path d="M699,1V699H1V1H699m1-1H0V700H700V0Z"/>
    <path class="a" d="M571.25,412a47.25,47.25,0,1,0,47.25,47.25A47.25,47.25,0,0,0,571.25,412Zm0,71.5717A24.3217,24.3217,0,1,1,595.5717,459.25,24.3217,24.3217,0,0,1,571.25,483.5717Z"/>
    <path class="a" d="M116.25,208a47.25,47.25,0,1,0,47.25,47.25A47.25,47.25,0,0,0,116.25,208Zm0,71.5717A24.3217,24.3217,0,1,1,140.5717,255.25,24.3217,24.3217,0,0,1,116.25,279.5717Z"/>
    <path class="a" d="M163.25,202.7175A12.4675,12.4675,0,1,1,175.7175,190.25,12.4675,12.4675,0,0,1,163.25,202.7175Z"/>
    <path class="a" d="M601.25,160.7175A12.4675,12.4675,0,1,1,613.7175,148.25,12.4675,12.4675,0,0,1,601.25,160.7175Z"/>
    <path class="a" d="M128.25,606.7175A12.4675,12.4675,0,1,1,140.7175,594.25,12.4675,12.4675,0,0,1,128.25,606.7175Z"/>
    <path class="a" d="M511.25,421.2615A22.0115,22.0115,0,1,1,533.2615,399.25,22.0115,22.0115,0,0,1,511.25,421.2615Z"/>
    <path class="a" d="M467.25,549.2039A31.9539,31.9539,0,1,1,499.2039,517.25,31.9538,31.9538,0,0,1,467.25,549.2039Z"/>
  </g>
</svg>
