<svg xmlns="http://www.w3.org/2000/svg" viewBox="0 0 700 700">
  <defs>
    <style>
      .a {
        fill: #f2f2f2;
      }
    </style>
  </defs>
  <title>D7</title>
  <g>
    <path d="M699,1V699H1V1H699m1-1H0V700H700V0Z"/>
    <path class="a" d="M122.7565,547.7728l-9.5555,84.8479a2.1208,2.1208,0,0,0,3.0177,2.1529l77.1218-36.6428a2.1208,2.1208,0,0,0,.3215-3.642l-67.5663-48.2051A2.1208,2.1208,0,0,0,122.7565,547.7728Zm17.8406,31.5417L157.71,591.5239a2.1208,2.1208,0,0,1-.269,3.6161l-20.2849,10.3342a2.1208,2.1208,0,0,1-3.0628-2.1852l3.1716-22.5435A2.1209,2.1209,0,0,1,140.5971,579.3145Z"/>
    <path class="a" d="M669.1285,298.5564l-32.9165,4.568a2.1208,2.1208,0,0,0-1.3392,3.4565l21.2453,25.5538a2.1209,2.1209,0,0,0,3.6084-.59l11.6711-30.1218A2.1208,2.1208,0,0,0,669.1285,298.5564ZM658.9732,311.1l-1.9078,4.9239a2.1208,2.1208,0,0,1-3.57.6341l-3.7759-4.2946a2.1208,2.1208,0,0,1,1.3593-3.5083l5.6838-.6293A2.1208,2.1208,0,0,1,658.9732,311.1Z"/>
    <path class="a" d="M334.3245,625.9034l-7.1828,14.0023a2.1208,2.1208,0,0,0,2.06,3.0817l15.6846-1.2847a2.1208,2.1208,0,0,0,1.59-3.2924l-8.5018-12.7176A2.1208,2.1208,0,0,0,334.3245,625.9034Zm4.07,8.709h0a2.1208,2.1208,0,0,1-1.5317,3.2868h0a2.1208,2.1208,0,0,1-2.091-3.1279h0A2.1209,2.1209,0,0,1,338.3948,634.6124Z"/>
    <path class="a" d="M570.5053,59.9908l11.3079,10.9448a2.1207,2.1207,0,0,0,3.5476-1.0748l3.3326-15.38a2.1208,2.1208,0,0,0-2.6876-2.4788l-14.64,4.4355A2.1207,2.1207,0,0,0,570.5053,59.9908Zm9.5163-1.3613h0a2.1208,2.1208,0,0,1,2.6992,2.4214h0a2.1208,2.1208,0,0,1-3.6008,1.0908h0A2.1207,2.1207,0,0,1,580.0216,58.63Z"/>
    <path class="a" d="M53.8379,390.5071,38.7738,395.06a2.1209,2.1209,0,0,0-.7873,3.6224L49.8014,409.078a2.1208,2.1208,0,0,0,3.4733-1.1418l3.2492-14.9486A2.1208,2.1208,0,0,0,53.8379,390.5071Zm-3.4413,8.9761h0a2.1208,2.1208,0,0,1-3.4288,1.18h0a2.1208,2.1208,0,0,1,.7991-3.6766h0A2.1208,2.1208,0,0,1,50.3966,399.4832Z"/>
    <path class="a" d="M662.4185,432.2021l-75.9244,39.0635a2.1208,2.1208,0,0,0-.12,3.7049l73.2387,43.8927a2.1208,2.1208,0,0,0,3.21-1.75l2.6857-82.9562A2.1208,2.1208,0,0,0,662.4185,432.2021Zm-17.6113,31.5255-.73,22.5369a2.1208,2.1208,0,0,1-3.1592,1.78l-21.2841-11.9694a2.1209,2.1209,0,0,1,.1217-3.7605L641.77,461.747A2.1207,2.1207,0,0,1,644.8072,463.7276Z"/>
    <path class="a" d="M69.22,310.4373l3.1056,46.1175a2.1207,2.1207,0,0,0,3.3533,1.58l37.54-26.967a2.1208,2.1208,0,0,0-.3334-3.641L72.24,308.3763A2.1208,2.1208,0,0,0,69.22,310.4373Zm13.92,15.6835,9.1221,4.2979a2.1208,2.1208,0,0,1,.38,3.6061l-8.69,6.6137a2.1208,2.1208,0,0,1-3.4036-1.6036l-.4324-10.9116A2.1207,2.1207,0,0,1,83.1405,326.1208Z"/>
  </g>
</svg>
