<svg xmlns="http://www.w3.org/2000/svg" viewBox="0 0 700 700">
  <defs>
    <style>
      .a {
        fill: #f2f2f2;
      }
    </style>
  </defs>
  <title>D7</title>
  <g>
    <path d="M699,1V699H1V1H699m1-1H0V700H700V0Z"/>
    <path class="a" d="M601.25,100a47.25,47.25,0,1,0,47.25,47.25A47.25,47.25,0,0,0,601.25,100Zm0,71.5717A24.3217,24.3217,0,1,1,625.5717,147.25,24.3217,24.3217,0,0,1,601.25,171.5717Z"/>
    <path class="a" d="M105.25,306a47.25,47.25,0,1,0,47.25,47.25A47.25,47.25,0,0,0,105.25,306Zm0,71.5717A24.3217,24.3217,0,1,1,129.5717,353.25,24.3217,24.3217,0,0,1,105.25,377.5717Z"/>
    <path class="a" d="M173.25,312.2429a9.0071,9.0071,0,1,0,9.0071,9.0071A9.0071,9.0071,0,0,0,173.25,312.2429Z"/>
    <path class="a" d="M563.25,58.2429a9.0071,9.0071,0,1,0,9.0071,9.0071A9.0071,9.0071,0,0,0,563.25,58.2429Z"/>
    <path class="a" d="M675.25,165.4217a4.8283,4.8283,0,1,0,4.8283,4.8283A4.8283,4.8283,0,0,0,675.25,165.4217Z"/>
    <path class="a" d="M56.25,247.8605a23.39,23.39,0,1,0,23.39,23.39A23.39,23.39,0,0,0,56.25,247.8605Z"/>
    <path class="a" d="M281.25,400.8605a23.39,23.39,0,1,0,23.39,23.39A23.39,23.39,0,0,0,281.25,400.8605Z"/>
    <path class="a" d="M541.25,195.3908A13.8592,13.8592,0,1,0,555.1092,209.25,13.8592,13.8592,0,0,0,541.25,195.3908Z"/>
    <path class="a" d="M591.25,586.3908A13.8592,13.8592,0,1,0,605.1092,600.25,13.8592,13.8592,0,0,0,591.25,586.3908Z"/>
  </g>
</svg>
