<svg xmlns="http://www.w3.org/2000/svg" viewBox="0 0 700 700">
  <defs>
    <style>
      .a {
        fill: #f2f2f2;
      }
    </style>
  </defs>
  <title>E3</title>
  <g>
    <path d="M699,1V699H1V1H699m1-1H0V700H700V0Z"/>
    <path class="a" d="M76.6482,67.4328l.7326,19.0959,13.3816,7.0562,16.1712-10.1823-.58-15.117L89.45,59.3721Z"/>
    <path class="a" d="M156.8461,41.7825h0l13.2168,6.9693h0L169.49,33.8212h0Z"/>
    <path class="a" d="M250.1651,623.1852,233.55,631.9719l-.5617,15.1177,15.917,9.9954,13.3731-7.0724.6978-18.7821Z"/>
    <path class="a" d="M496.544,519.0323l-2.5321,1.3391-.5617,15.1177,2.4258,1.5232,13.3731-7.0724.1063-2.8623Z"/>
    <path class="a" d="M50.93,177.845l-2.8084-.563L38.13,188.641l.9166,2.7136,14.833,2.9736,1.8918-2.1507Z"/>
    <path class="a" d="M559.7191,225.5045l-9.5057-5.0956-12.8564,7.9734.34,10.78L551.03,246.31l9.1657-5.6845Z"/>
    <path class="a" d="M626.0568,376.7713l-9.6384,16.6941,7.5641,13.1013h19.2766l7.5641-13.1013-9.6383-16.6941Z"/>
  </g>
</svg>
