<svg xmlns="http://www.w3.org/2000/svg" viewBox="0 0 700 700">
  <defs>
    <style>
      .a {
        fill: #f2f2f2;
      }
    </style>
  </defs>
  <title>E4</title>
  <g>
    <path d="M699,1V699H1V1H699m1-1H0V700H700V0Z"/>
    <polygon class="a" points="99.969 79.889 99.858 100.884 118.096 90.482 99.969 79.889"/>
    <polygon class="a" points="237.325 633.493 214.529 645.303 236.155 659.14 237.325 633.493"/>
    <polygon class="a" points="648.515 562.53 629.34 572.464 647.531 584.103 648.515 562.53"/>
    <polygon class="a" points="123.81 237.823 98.045 251.171 122.488 266.811 123.81 237.823"/>
    <polygon class="a" points="593.009 294.974 572.845 305.42 591.974 317.659 593.009 294.974"/>
    <polygon class="a" points="151.373 126.189 140.481 131.832 150.814 138.444 151.373 126.189"/>
    <polygon class="a" points="593.409 376.922 596.448 415.966 628.742 393.812 593.409 376.922"/>
  </g>
</svg>
