<svg xmlns="http://www.w3.org/2000/svg" viewBox="0 0 700 700">
  <defs>
    <style>
      .a {
        fill: #f2f2f2;
      }
    </style>
  </defs>
  <title>E5</title>
  <g>
    <path d="M699,1V699H1V1H699m1-1H0V700H700V0Z"/>
    <path class="a" d="M88.075,91.047l4.3625,9.7a4.6622,4.6622,0,0,0,8.0339.814l6.2195-8.6283a4.6621,4.6621,0,0,0-3.312-7.3645l-10.582-1.0722A4.6622,4.6622,0,0,0,88.075,91.047Z"/>
    <path class="a" d="M143.075,570.047l4.3625,9.7a4.6622,4.6622,0,0,0,8.0339.814l6.22-8.6283a4.6621,4.6621,0,0,0-3.312-7.3645l-10.582-1.0722A4.6622,4.6622,0,0,0,143.075,570.047Z"/>
    <path class="a" d="M550.2507,444.3937l.7935,1.7645a4.6621,4.6621,0,0,0,8.0339.8139l1.1314-1.5694a4.6622,4.6622,0,0,0-3.3121-7.3646l-1.9248-.195A4.6621,4.6621,0,0,0,550.2507,444.3937Z"/>
    <path class="a" d="M67.2507,199.3937l.7935,1.7645a4.6621,4.6621,0,0,0,8.0339.8139l1.1314-1.5694a4.6622,4.6622,0,0,0-3.3121-7.3646l-1.9248-.195A4.6621,4.6621,0,0,0,67.2507,199.3937Z"/>
    <path class="a" d="M555.9471,307.16l-3.7745,9.944a4.6621,4.6621,0,0,0,5.1053,6.2564l10.4989-1.7032a4.6621,4.6621,0,0,0,2.8656-7.5495l-6.7245-8.2408A4.6621,4.6621,0,0,0,555.9471,307.16Z"/>
    <path class="a" d="M244.41,660.7l8.8828-15.5051a7.7846,7.7846,0,0,0-3.8622-11.0969l-12.5316-5.0153a7.7845,7.7845,0,0,0-10.5568,8.59l3.6489,20.52A7.7846,7.7846,0,0,0,244.41,660.7Z"/>
    <path class="a" d="M615.3805,392.9717l-6.0512-9.381a10.1261,10.1261,0,0,0-17.5176.864l-5.0986,9.931a10.1261,10.1261,0,0,0,9.507,14.7387l11.15-.55A10.1261,10.1261,0,0,0,615.3805,392.9717Z"/>
  </g>
</svg>
